<svg xmlns="http://www.w3.org/2000/svg" viewBox="0 0 32 32">
    <path fill="var(--secondary-color)" d="M12.58 15.15a1.3 1.3 0 101.3 1.3c0-.71-.58-1.3-1.3-1.3zm0 1.6a.26.26 0 110-.53.26.26 0 110 .53z" xmlns="http://www.w3.org/2000/svg"/>
    <path fill="var(--main-color)" d="M23.8 6.58h-3.45V5.24a.52.52 0 00-1.04 0v1.34H12.7V5.24a.52.52 0 00-1.04 0v1.34H8.2a2.55 2.55 0 00-2.55 2.55v15.6c0 1.4 1.14 2.55 2.55 2.55h15.6c1.4 0 2.55-1.14 2.55-2.55V9.13c0-1.41-1.14-2.55-2.55-2.55zM8.2 7.62h3.45V8.8c0 .29.24.52.53.52.3 0 .52-.24.52-.52V7.6h6.63v1.2a.51.51 0 101.02 0V7.62h3.45c.83 0 1.51.67 1.51 1.5V10H6.7v-.87c0-.84.67-1.51 1.5-1.51zm15.6 18.62H8.2c-.83 0-1.5-.68-1.5-1.51V11.04h18.6v13.69c0 .83-.68 1.51-1.51 1.51z" xmlns="http://www.w3.org/2000/svg"/>
    <path fill="var(--main-color)" d="M9.6 21.06h-.8a.52.52 0 000 1.04h.8a.52.52 0 000-1.04zm3.38 0h-.8a.52.52 0 000 1.04h.8a.52.52 0 000-1.04zM9.6 23.63h-.8a.52.52 0 000 1.04h.8a.52.52 0 000-1.04zm3.38 0h-.8a.52.52 0 000 1.04h.8a.52.52 0 000-1.04zm3.42 0h-.8a.52.52 0 000 1.04h.8a.52.52 0 000-1.04zm0-2.57h-.8a.52.52 0 000 1.04h.8a.52.52 0 000-1.04zm3.42 0h-.8a.52.52 0 000 1.04h.8a.52.52 0 000-1.04zm3.42 0h-.8a.52.52 0 000 1.04h.8a.52.52 0 000-1.04zM12.98 18.5h-.8a.52.52 0 000 1.04h.8a.52.52 0 000-1.04zm3.42 0h-.8a.52.52 0 000 1.04h.8a.52.52 0 000-1.04zm3.42 0h-.8a.52.52 0 000 1.04h.8a.52.52 0 000-1.04zm3.42 0h-.8a.52.52 0 000 1.04h.8a.52.52 0 000-1.04zM8.8 16.98h.8a.52.52 0 000-1.04h-.8a.52.52 0 000 1.04zm0 2.56h.8a.52.52 0 000-1.04h-.8a.52.52 0 000 1.04zm7.6-3.6h-.8a.52.52 0 000 1.04h.8a.52.52 0 000-1.04zm3.42 0h-.8a.52.52 0 000 1.04h.8a.52.52 0 000-1.04zm3.42 0h-.8a.52.52 0 000 1.04h.8a.52.52 0 000-1.04zM9.6 13.38h-.8l-.1-.01a.52.52 0 10.1 1.03h.8a.52.52 0 000-1.04zm2.58 1.02h.8a.52.52 0 000-1.04h-.8a.52.52 0 000 1.04zm4.22-1.02h-.8a.52.52 0 000 1.04h.8a.52.52 0 000-1.04zm3.42 0h-.8a.52.52 0 000 1.04h.8a.52.52 0 000-1.04zm3.42 0h-.8a.52.52 0 000 1.04h.8a.52.52 0 000-1.04z" xmlns="http://www.w3.org/2000/svg"/>
</svg>
