<svg xmlns="http://www.w3.org/2000/svg" viewBox="0 0 32 32">
    <path fill="var(--secondary-color)" d="M26.776 7.824h-3.088V4.736a.52.52 0 00-1.04 0v3.088h-3.08a.52.52 0 000 1.04h3.08v3.08a.52.52 0 001.04 0v-3.08h3.088a.52.52 0 000-1.04z" xmlns="http://www.w3.org/2000/svg"/>
    <path fill="var(--main-color)" d="M14.4 19.84c2.8 0 4.904-3.936 4.904-6.488a4.905 4.905 0 10-9.8.01v-.01c.016 2.552 2.12 6.488 4.896 6.488zm0-10.352a3.864 3.864 0 013.864 3.864c0 2.104-1.768 5.448-3.864 5.448s-3.856-3.344-3.856-5.448v-.008A3.856 3.856 0 0114.4 9.488zM17.968 19.92a.514.514 0 00-.559.293l-.001.003c-.56 1.24-1.68 2.688-2.992 2.688s-2.4-1.448-2.984-2.688a.536.536 0 00-.571-.296h.003a17.79 17.79 0 00-5.99 2.142l.086-.046a.513.513 0 00-.256.443V25.386c0 .239.161.44.38.501l.004.001 1.544.448c2.298.81 4.953 1.331 7.712 1.446l.056.002a27.356 27.356 0 008-1.515l-.192.059c.544-.16 1.056-.312 1.536-.44a.529.529 0 00.384-.504v-2.912-.005a.51.51 0 00-.254-.442l-.002-.001a17.372 17.372 0 00-5.799-2.089l-.105-.015zm5.136 5.072l-1.168.336c-2.23.797-4.806 1.306-7.485 1.414l-.051.002a26.273 26.273 0 01-7.672-1.464l.184.056-1.184-.344v-2.224a16.433 16.433 0 014.814-1.735l.106-.017c.76 1.48 2.088 2.928 3.752 2.928s3-1.448 3.76-2.928c1.854.356 3.505.964 5.015 1.796l-.087-.044z" xmlns="http://www.w3.org/2000/svg"/>
</svg>
