<svg xmlns="http://www.w3.org/2000/svg" viewBox="0 0 32 32">
    <path fill="var(--main-color)" d="M27.2 16.56h-1.44v-3.472a.52.52 0 00-1.04 0v3.472h-1.84a2.912 2.912 0 000 5.824h1.84v2.84H6.392a1 1 0 01-1-1V13.28c.28.2.629.32 1.007.32h13.257a.52.52 0 000-1.04H6.4c-.544 0-1.008-.632-1.008-1.384S5.816 9.8 6.4 9.8H16a.52.52 0 00.004-.999L16 8.8H6.4a2.267 2.267 0 00-2.048 2.407V11.2v13.04A2.048 2.048 0 006.4 26.264h18.808a.52.52 0 00.52-.52V22.4H27.2a.52.52 0 00.52-.52v-4.8a.52.52 0 00-.52-.52zm-.52 4.8h-3.832a1.872 1.872 0 110-3.744h3.8z" xmlns="http://www.w3.org/2000/svg"/>
    <path fill="var(--main-color)" d="M16 10.664H6.664a.52.52 0 000 1.04H16a.52.52 0 000-1.04zM23.544 19.104l-.168-.112a.493.493 0 00-.403.001l.003-.001-.168.112-.112.168-.04.2a.53.53 0 00.152.368l.168.112.224.048h.2l.168-.112.112-.168.04-.2-.04-.2z" xmlns="http://www.w3.org/2000/svg"/>
    <path fill="var(--secondary-color)" d="M19.568 10.4h3.08v3.088a.52.52 0 001.04 0V10.4h3.088a.52.52 0 000-1.04h-3.088V6.256a.52.52 0 00-1.04 0v3.08h-3.08a.52.52 0 000 1.04z" xmlns="http://www.w3.org/2000/svg"/>
</svg>
