<svg xmlns="http://www.w3.org/2000/svg" viewBox="0 0 32 32">
    <path fill="var(--secondary-color)" d="M26.776 7.824h-3.088V4.736a.52.52 0 00-1.04 0v3.088h-3.08a.52.52 0 000 1.04h3.08v3.08a.52.52 0 001.04 0v-3.08h3.088a.52.52 0 000-1.04z" xmlns="http://www.w3.org/2000/svg"/>
    <path fill="var(--main-color)" d="M14.4 19.72h.008a4.905 4.905 0 10-4.904-4.904v.008A4.905 4.905 0 0014.4 19.72zm0-8.76h.008a3.864 3.864 0 11-3.864 3.864A3.864 3.864 0 0114.4 10.96zM18.088 20a.51.51 0 00-.623.167l-.001.001a4.206 4.206 0 01-3.036 1.599l-.012.001a4.223 4.223 0 01-3.033-1.591l-.007-.009a.512.512 0 00-.627-.166l.003-.001a43.203 43.203 0 00-4.42 2.132l.228-.116a.513.513 0 00-.256.443V25.387c0 .239.161.44.38.501l.004.001c.86.244 1.554.487 2.231.764l-.143-.052c1.664.751 3.607 1.188 5.652 1.188s3.988-.437 5.741-1.224l-.089.036c.688-.256 1.336-.504 2.08-.704a.529.529 0 00.384-.504v-2.92-.005a.51.51 0 00-.254-.442l-.002-.001a39.448 39.448 0 00-3.918-1.917l-.282-.107zm3.416 5.032c-.64.192-1.224.416-1.792.632-1.554.708-3.371 1.12-5.284 1.12s-3.73-.412-5.366-1.153l.082.033c-.576-.216-1.16-.44-1.8-.632v-2.264c1.208-.68 2.776-1.4 3.464-1.704.889 1 2.16 1.645 3.582 1.704h.01a5.049 5.049 0 003.603-1.699l.005-.005c.696.312 2.272 1.024 3.48 1.704z" xmlns="http://www.w3.org/2000/svg"/>
</svg>
