<svg xmlns="http://www.w3.org/2000/svg" viewBox="0 0 32 32">
    <path fill="var(--main-color)" d="M16 3.504a8.336 8.336 0 00-8.328 8.328.52.52 0 001.04 0v-.022a7.288 7.288 0 1112.597 4.993l.003-.004c-.176.184-4.224 4.672-5.392 8.2a3.125 3.125 0 01-3.048 2.454 3.12 3.12 0 01-3.12-3.12v-.032.002a.52.52 0 00-1.04 0v.017a4.16 4.16 0 008.202.987l.006-.028c1.088-3.272 5.12-7.736 5.152-7.776a8.329 8.329 0 00-6.071-14H16z" xmlns="http://www.w3.org/2000/svg"/>
    <path fill="var(--main-color)" d="M11.264 19.2a.52.52 0 000 1.04c2.136 0 3.68-2.824 3.68-4.728 0-1.704-1.16-2.832-2.168-3.624a1.601 1.601 0 01-.565-1.907l-.004.011a4.225 4.225 0 013.784-2.357 4.216 4.216 0 014.216 4.196v.001a.52.52 0 001.04 0 5.256 5.256 0 00-9.97-2.327l-.014.031a2.606 2.606 0 00.856 3.195l.008.005c1.24.976 1.768 1.816 1.768 2.808.008 1.504-1.296 3.656-2.632 3.656z" xmlns="http://www.w3.org/2000/svg"/>
</svg>
