<svg xmlns="http://www.w3.org/2000/svg" viewBox="0 0 32 32">
    <path fill="var(--main-color)" d="M26.96 21.792a1.604 1.604 0 00-2.248-.796l.008-.004-3.584 1.64a1.77 1.77 0 00-.788-.485l-.012-.003-5.136-1.52a16.776 16.776 0 00-3.043-.271c-.902 0-1.789.069-2.654.203l.096-.012v-.488a.52.52 0 00-.52-.52h-3.68a.52.52 0 00-.52.52v6.496c0 .287.233.52.52.52h3.712a.52.52 0 00.52-.52V25.6a3.754 3.754 0 011.395-.264c.194 0 .384.014.57.042l-.021-.003c1.94.899 4.207 1.438 6.596 1.472h.012a6.861 6.861 0 002.576-.383l-.048.015 5.432-2.48a1.643 1.643 0 00.812-2.218l.004.01zm-18.4 4.24H5.92v-5.456h2.672zm17.12-2.96l-5.432 2.472c-.848.384-4.432.616-8.28-1.096a3.64 3.64 0 00-1.071-.157c-.478 0-.935.09-1.354.254l.025-.009V21.6a16.842 16.842 0 015.385.013l-.097-.013 5.136 1.504a.563.563 0 01.431.412l.001.004a.746.746 0 01-.2.696.558.558 0 01-.587.111l.004.001-5.392-1.6a.52.52 0 00-.299.999l.004.001 5.392 1.6c.153.045.329.071.511.072h.001a1.6 1.6 0 001.089-.433l-.001.001a1.779 1.779 0 00.519-1.422v.007l3.624-1.648a.607.607 0 01.863.292l.002.004a.616.616 0 01-.236.87l-.003.002zM16.344 18.024a.75.75 0 00.245-.001l-.005.001a.794.794 0 00.253 0l-.005.001c.056 0 5.696-1.656 5.696-7.2V7.201 7.18a.912.912 0 00-1.175-.874l.006-.002a2.78 2.78 0 01-.638.072h-.028.001a3.998 3.998 0 01-3.35-1.958l-.01-.018a.966.966 0 00-1.495-.002l-.001.002c-1.392 2-3.304 2.152-4 1.904a.935.935 0 00-.803.146l.003-.002a.912.912 0 00-.4.752v3.688c0 5.48 5.648 7.12 5.704 7.136zM11.688 7.352a4.954 4.954 0 004.885-2.189l.012-.019a4.988 4.988 0 004.108 2.272h.006c.282 0 .558-.026.825-.076l-.028.004v3.52c0 4.712-4.736 6.104-4.864 6.16s-4.936-1.448-4.936-6.16z" xmlns="http://www.w3.org/2000/svg"/>
</svg>
