<svg xmlns="http://www.w3.org/2000/svg" viewBox="0 0 32 32">
    <path fill="var(--main-color)" d="M24.448 9.136a1.144 1.144 0 00-1-.182l.008-.002a4.245 4.245 0 01-1.02.121l-.088-.001h.004c-1.472 0-3.608-.544-5.424-3.16a1.19 1.19 0 00-1.854-.002l-.002.002c-2.232 3.2-5.344 3.448-6.52 3.048a1.094 1.094 0 00-.994.178l.003-.002c-.276.205-.454.53-.456.896v5.704c0 8.312 8.512 10.76 8.6 10.784a1.109 1.109 0 00.6-.002l-.008.002c.088 0 8.6-2.448 8.6-10.784v-5.704-.004c0-.364-.175-.687-.445-.89l-.003-.002zm-.592 6.6c0 7.504-7.76 9.76-7.88 9.784s-7.832-2.32-7.832-9.784v-5.704l.088-.08c1.664.56 5.216.12 7.696-3.448h.144c2.072 2.984 4.56 3.608 6.28 3.608l.082.001c.465 0 .917-.059 1.348-.169l-.038.008-.144-.496.256.576z" xmlns="http://www.w3.org/2000/svg"/>
    <path fill="var(--main-color)" d="M18.6 13.52l-3.944 4.8-1.272-1.4a.53.53 0 10-.799.697l-.001-.001 1.68 1.848a.505.505 0 00.376.168h.009a.517.517 0 00.383-.183l.001-.001 4.336-5.248a.51.51 0 00-.072-.728l-.001-.001a.525.525 0 00-.696.048z" xmlns="http://www.w3.org/2000/svg"/>
</svg>
