<svg xmlns="http://www.w3.org/2000/svg" viewBox="0 0 32 32">
    <path fill="var(--main-color)" d="M22.744 24.736a.52.52 0 00-.52.52v.96a.248.248 0 01-.231.24H7.272a.24.24 0 01-.232-.24V5.792v-.008a.24.24 0 01.232-.24L18.4 5.528V8.84c0 .287.233.52.52.52h3.296v3.248a.52.52 0 001.04 0V8.84v-.01a1.1 1.1 0 00-.375-.829L22.88 8l-3.2-3.12a1.04 1.04 0 00-.8-.376H7.272A1.28 1.28 0 006 5.784v20.432a1.28 1.28 0 001.272 1.28h14.72a1.28 1.28 0 001.272-1.28v-.96a.52.52 0 00-.52-.52zM21.736 8.32h-2.288V6.064z" xmlns="http://www.w3.org/2000/svg"/>
    <path fill="var(--main-color)" d="M15.2 22.16H9.856a.52.52 0 000 1.04H15.2a.52.52 0 000-1.04zM15.2 19.296H9.856a.52.52 0 000 1.04H15.2a.52.52 0 000-1.04zM15.2 16.432H9.856a.52.52 0 000 1.04H15.2a.52.52 0 000-1.04zM9.856 14.608h3.696a.528.528 0 00.52-.52.528.528 0 00-.52-.52H9.856a.52.52 0 000 1.04z" xmlns="http://www.w3.org/2000/svg"/>
    <path fill="var(--secondary-color)" d="M26 17.272a3.256 3.256 0 00-6.512 0v.008c0 .993.453 1.881 1.163 2.468l.005.004v4.057a.52.52 0 00.888.367l1.224-1.224L24 24.176a.544.544 0 00.367.152l.2-.04a.53.53 0 00.32-.48v-4.096a3.193 3.193 0 001.112-2.425v-.016.001zm-2.168 5.28l-.696-.696a.512.512 0 00-.736 0l-.704.696v-2.208c.317.122.684.192 1.068.192s.751-.07 1.089-.199l-.021.007zm-1.088-3.064a2.216 2.216 0 112.216-2.216 2.216 2.216 0 01-2.216 2.216z" xmlns="http://www.w3.org/2000/svg"/>
</svg>
