<svg xmlns="http://www.w3.org/2000/svg" viewBox="0 0 32 32">
    <path fill="var(--main-color)" d="M14.2 21.6a.52.52 0 00.89-.37.52.52 0 00-.89-.37l-.11.17-.04.2c0 .07.01.14.04.2zm0-1.89a.52.52 0 00.74 0c.09-.1.14-.22.15-.37a.52.52 0 00-.89-.36c-.1.09-.15.22-.15.36l.04.2zm0-1.91a.54.54 0 00.74 0 .52.52 0 000-.74.54.54 0 00-.74 0l-.11.17-.04.2.04.2zm0-1.9a.54.54 0 00.74 0c.09-.1.15-.23.15-.37a.53.53 0 00-.15-.37.54.54 0 00-.74 0l-.11.17-.04.2.04.2zm0-1.92a.5.5 0 00.74 0c.09-.1.15-.23.15-.37l-.04-.2-.11-.17a.56.56 0 00-.74 0 .53.53 0 00-.11.57zm.2-1.78h.4l.17-.13c.07-.09.11-.2.11-.33a.52.52 0 00-.85-.4l-.11.17-.04.2c0 .14.06.27.15.36zm-.2-2.03c.1.1.22.15.37.15a.52.52 0 00.37-.89.54.54 0 00-.74 0l-.11.17-.04.2.04.2zm0-1.91a.54.54 0 00.74 0c.09-.1.14-.22.15-.36v-.01a.5.5 0 00-.15-.36.53.53 0 00-.74 0l-.11.16-.04.2.04.2zm3.03 13.47l.2.04a.5.5 0 00.37-.16c.1-.1.15-.22.15-.37a.56.56 0 00-.15-.37.57.57 0 00-.57-.1l-.17.1c-.09.1-.14.23-.15.37 0 .15.06.28.15.37zm0-1.91h.2c.14 0 .27-.05.37-.15a.53.53 0 000-.74.52.52 0 00-.57-.1l-.17.1c-.09.1-.15.23-.15.37 0 .15.06.28.15.37zm0-1.91h.21c.14 0 .27-.05.36-.14.1-.1.15-.23.15-.37l-.04-.2-.11-.17a.55.55 0 00-.57-.12l-.17.12-.1.17-.05.2c0 .14.06.27.15.37zm-.17-2.01l.17.1h.21c.14 0 .27-.05.36-.14l.11-.17.04-.2a.53.53 0 00-.15-.36.53.53 0 00-.74 0c-.09.1-.15.22-.15.37l.04.19zm0-1.92l.17.12.2.04c.15 0 .28-.07.37-.16l.11-.17a.52.52 0 00.04-.2.54.54 0 00-.15-.37.57.57 0 00-.57-.1l-.17.1a.53.53 0 00-.11.57zm0-1.91l.17.12h.2a.5.5 0 00.37-.16l.11-.17.04-.19a.52.52 0 00-1.04 0l.04.2zm.17-1.8l.2.05a.52.52 0 00.37-.89.53.53 0 00-.74 0 .52.52 0 000 .74zm0-1.89h.21a.5.5 0 00.36-.16c.1-.09.15-.22.15-.36a.5.5 0 00-.15-.36.53.53 0 00-.74 0 .5.5 0 00-.15.36c0 .15.06.27.15.37z" xmlns="http://www.w3.org/2000/svg"/>
    <path fill="var(--main-color)" d="M26.98 10.23H20.8v-5.2a.53.53 0 00-.52-.53H11.7a.53.53 0 00-.52.52v3.3H5.02a.53.53 0 00-.52.53v18.13c0 .28.24.51.52.52h21.96c.28 0 .51-.24.52-.52V10.75a.53.53 0 00-.52-.52zM5.55 9.37h5.6v17.09h-5.6zm6.67-.52v-3.3h7.56v20.9h-1.83v-2.34a.52.52 0 00-.52-.52h-2.86a.52.52 0 00-.52.52v2.35h-1.83zm2.87 17.6v-1.82h1.82v1.83zm11.36 0H20.8v-15.2h5.6z" xmlns="http://www.w3.org/2000/svg"/>
    <path fill="var(--main-color)" d="M9.44 11.2H7.42a.52.52 0 000 1.04h2.02a.52.52 0 000-1.04zm0 1.9H7.42a.52.52 0 000 1.04h2.02a.52.52 0 000-1.04zm0 1.9H7.42a.52.52 0 000 1.04h2.02a.52.52 0 000-1.04zm0 1.91H7.42a.52.52 0 000 1.04h2.02a.52.52 0 000-1.04zm0 1.91H7.35a.52.52 0 10.07 1.04H9.5a.52.52 0 10-.06-1.04zm0 1.91H7.42a.52.52 0 000 1.04h2.02a.52.52 0 000-1.04zm0 1.91H7.42a.52.52 0 000 1.04h2.02a.52.52 0 000-1.04zm13.24-8.5h2.02a.52.52 0 000-1.04h-2.02a.52.52 0 000 1.04zm0 1.9h2.02a.52.52 0 000-1.04h-2.02a.52.52 0 000 1.04zm0 1.91h2.02a.52.52 0 000-1.04h-2.02a.52.52 0 000 1.04zm0 1.91h2.09a.52.52 0 10-.07-1.04h-2.08a.52.52 0 10.06 1.04zm0 1.91h2.02a.52.52 0 000-1.04h-2.02a.52.52 0 000 1.04zm0 1.91h2.02a.52.52 0 000-1.04h-2.02a.52.52 0 000 1.04z" xmlns="http://www.w3.org/2000/svg"/>
</svg>
