<svg xmlns="http://www.w3.org/2000/svg" viewBox="0 0 32 32">
    <path fill="var(--main-color)" d="M26.984 16v-.017c0-6.066-4.918-10.984-10.984-10.984S5.016 9.917 5.016 15.983c0 2.382.758 4.587 2.047 6.387l-.023-.033a.532.532 0 00.135.183l.001.001c2.018 2.715 5.216 4.455 8.821 4.455 1.568 0 3.06-.329 4.409-.923l-.07.028h.064c3.909-1.742 6.584-5.593 6.584-10.069v-.011.001zM16 6.056h.024c5.483 0 9.928 4.445 9.928 9.928a9.882 9.882 0 01-1.971 5.938l.019-.026a4.722 4.722 0 01-1.165-.756l.005.004v-.256c.352-.423.626-.925.792-1.474l.008-.03c.285-.27.462-.651.462-1.074 0-.283-.079-.548-.217-.773l.004.006v-1.144c0-1.76-1.12-2.808-3-2.808s-3 1.08-3 2.808v1.144a1.473 1.473 0 00.247 1.839l.001.001c.199.648.529 1.206.962 1.666l-.002-.002a.52.52 0 10.743-.728 3.187 3.187 0 01-.739-1.354l-.005-.022a.52.52 0 00-.198-.279l-.002-.001a.435.435 0 01-.175-.261l-.001-.003a.43.43 0 01.097-.336l-.001.001a.545.545 0 00.112-.328V16.4c0-1.168.664-1.768 1.96-1.768s1.96.576 1.96 1.768v1.314c0 .125.045.239.121.327l-.001-.001a.43.43 0 01.096.339v-.002a.442.442 0 01-.175.287l-.001.001a.518.518 0 00-.199.276l-.001.004a3.2 3.2 0 01-.754 1.378l.002-.002a.557.557 0 00-.144.368v.736c.144.464.8.928 1.496 1.296a10.121 10.121 0 01-2.55 2.054l-.05.026v-1.536a1.072 1.072 0 00-.681-.989L20 22.273c-4-1.6-4.8-2.264-4.928-2.472v-.448a5.503 5.503 0 001.038-1.945l.01-.039c.296-.271.499-.64.559-1.054l.001-.01a1.74 1.74 0 00-.261-1.206l.004.007v-1.504c0-2.224-1.344-3.504-3.688-3.504s-3.68 1.312-3.68 3.504v1.544a1.724 1.724 0 00-.254 1.21l-.001-.01c.061.423.261.79.551 1.063l.001.001a5.425 5.425 0 001.055 1.952l-.007-.008v.448a8.392 8.392 0 01-2.663 1.66l-.057.02a9.742 9.742 0 01-1.624-5.413v-.071.004c.005-5.49 4.454-9.939 9.944-9.944zm-7.656 16.28c1.152-.536 2.856-1.456 3.104-2.272v-.912a.537.537 0 00-.144-.36 4.358 4.358 0 01-.985-1.834l-.007-.03a.562.562 0 00-.199-.287l-.001-.001a.734.734 0 01-.287-.476l-.001-.004a.799.799 0 01.162-.57l-.001.002a.522.522 0 00.112-.32V13.6c0-1.6.912-2.464 2.64-2.464s2.648.8 2.648 2.464v1.712a.537.537 0 00.113.321l-.001-.001a.718.718 0 01.151.572l.001-.004a.698.698 0 01-.278.479l-.002.001a.563.563 0 00-.199.284l-.001.004a4.392 4.392 0 01-.995 1.868l.003-.004a.532.532 0 00-.144.36v.912c.176.576.968 1.36 5.6 3.2v1.976a9.71 9.71 0 01-3.666.705 9.868 9.868 0 01-7.625-3.592l-.013-.017z" xmlns="http://www.w3.org/2000/svg"/>
</svg>
