<svg xmlns="http://www.w3.org/2000/svg" viewBox="0 0 32 32">
    <path fill="var(--main-color)" d="M23.432 19.448h-5.976a.52.52 0 000 1.04h5.976a.52.52 0 000-1.04z" xmlns="http://www.w3.org/2000/svg"/>
    <path fill="var(--main-color)" d="M26.104 7.592H5.896a1.832 1.832 0 00-1.824 1.824v13.168a1.832 1.832 0 001.824 1.824h20.208a1.832 1.832 0 001.824-1.824V9.416a1.832 1.832 0 00-1.824-1.824zM5.896 8.632h20.208a.8.8 0 01.8.8v1.16H5.112V9.416a.801.801 0 01.783-.784h.001zm20.992 5.856H5.112v-2.872h21.776zm-.8 8.88H5.896a.8.8 0 01-.8-.8v-7.04h21.792v7.056a.801.801 0 01-.783.784h-.001z" xmlns="http://www.w3.org/2000/svg"/>
</svg>
