<svg xmlns="http://www.w3.org/2000/svg" viewBox="0 0 512 512">
   <g fill="var(--main-color)">
      <path d="M322.858 320.7a8.74 8.687 0 0010.765-13.69l-60.157-46.574v-122.73a8.707 8.654 0 10-17.414 0v126.978a8.707 8.654 0 003.166 6.923zM152.36 151.394l3.483-3.776a8.738 8.685 0 10-12.823-11.801l-3.8 4.248a8.707 8.654 0 1013.14 11.33zM236.105 101.83l5.066-1.101a8.707 8.654 0 00-3.166-16.994l-5.699 1.102a8.757 8.704 0 103.8 16.993zM121.49 181.762a8.707 8.654 0 0011.873-3.461l2.533-4.406a8.707 8.654 0 00-14.88-8.812 135.195 134.374 0 00-2.85 4.72 8.707 8.654 0 003.324 11.96zM176.581 129.051l4.116-3.147a8.741 8.688 0 10-10.131-14.161 96.726 96.139 0 00-4.591 3.461 8.755 8.702 0 0010.606 13.847zM204.919 112.215l4.749-2.046a8.793 8.74 0 10-6.966-16.049l-5.066 2.203a8.713 8.66 0 007.283 15.735z"/>
      <path d="M395.047 130.94a174.14 173.082 0 00-126.963-49.88 8.707 8.654 0 00-8.549 8.812 9.182 9.126 0 008.865 8.496 158.783 157.819 0 11-154.509 169.148l22.163 18.882a8.707 8.654 0 1011.24-13.217l-35.936-30.84-.633-.472-.475-.315-.158-.157a8.549 8.497 0 00-2.216-1.259 9.34 9.283 0 00-1.584-.472 7.599 7.553 0 00-1.108-.157h-.316a8.549 8.497 0 00-2.533.314h-.633a8.549 8.497 0 00-3.167 2.046l-31.978 31.784a8.731 8.678 0 0012.348 12.273l17.414-17.308A175.88 174.812 0 00272.041 431a176.039 174.97 0 00123.006-300.06z"/>
   </g>
</svg>
