<svg xmlns="http://www.w3.org/2000/svg" viewBox="0 0 32 32">
    <path fill="var(--main-color)" d="M27.2 15.048h-1.44v-3.472a.52.52 0 00-.52-.52H6.4c-.544 0-1.008-.632-1.008-1.384S5.816 8.288 6.4 8.288h18.808a.52.52 0 000-1.04H6.4a2.267 2.267 0 00-2.048 2.407v-.007 13.056c0 1.131.917 2.048 2.048 2.048h18.808a.52.52 0 00.52-.52v-3.36H27.2a.52.52 0 00.52-.52v-4.8a.52.52 0 00-.52-.504zm-2.48 8.664H6.392a1 1 0 01-1-1V11.768c.281.2.63.322 1.006.328h18.29v2.952h-1.84a2.912 2.912 0 000 5.824h1.84zm1.96-3.88h-3.832a1.872 1.872 0 110-3.744h3.8z" xmlns="http://www.w3.org/2000/svg"/>
    <path fill="var(--main-color)" d="M25.208 9.152H6.664a.52.52 0 000 1.04h18.544a.52.52 0 000-1.04zM22.808 17.6a.524.524 0 000 .744.52.52 0 00.736 0 .522.522 0 10-.736-.744z" xmlns="http://www.w3.org/2000/svg"/>
</svg>
