<svg xmlns="http://www.w3.org/2000/svg" viewBox="0 0 32 32">
    <path fill="var(--main-color)" d="M20.896 8.688l-.424-.416h-2.288V6.016l-.48-.416-.104-.088h-.496l.048 3.288a.52.52 0 00.52.512h3.296V8.8zM22.008 8.776z" xmlns="http://www.w3.org/2000/svg"/>
    <path fill="var(--main-color)" d="M21.664 24.68a.512.512 0 00-.512.512v.978a.207.207 0 01-.072.157.228.228 0 01-.159.08h-.001l-14.72.152a.23.23 0 01-.16-.064.281.281 0 01-.072-.175v-.001L5.752 5.903l.072-.184a.23.23 0 01.16-.072L17.6 5.519l.096.088 2.768 2.672.424.416.072.104v3.768a.52.52 0 00.52.512.512.512 0 00.512-.512v-.017.001-3.768a1.133 1.133 0 00-.391-.847l-.001-.001-3.2-3.08a.957.957 0 00-.756-.369l-.046.001h.002l-11.632.12a1.244 1.244 0 00-.895.399l-.001.001c-.223.23-.36.544-.36.89v.015-.001l.216 20.416c.012.341.153.647.376.872.227.227.541.368.888.368H6.2l14.712-.152c.355-.006.674-.155.904-.392.223-.227.36-.537.36-.881v-.033.002-.92a.52.52 0 00-.512-.512z" xmlns="http://www.w3.org/2000/svg"/>
    <path fill="var(--main-color)" d="M8.744 23.28l5.336-.08a.528.528 0 00.512-.528.52.52 0 00-.52-.512l-5.32.056a.528.528 0 00-.52.52v.016c0 .286.227.519.511.528h.001zM8.72 20.416l5.328-.056a.528.528 0 00.512-.528.544.544 0 00-.527-.512h-.001l-5.32.056a.52.52 0 000 1.04zM8.688 17.552l5.32-.056a.512.512 0 00.512-.512v-.017.001a.528.528 0 00-.52-.512l-5.328.056a.52.52 0 000 1.04zM8.664 14.688l3.688-.04a.528.528 0 00.52-.52.528.528 0 00-.52-.52H8.656a.52.52 0 000 1.04z" xmlns="http://www.w3.org/2000/svg"/>
    <path fill="var(--secondary-color)" d="M22.648 21.256a.482.482 0 01.334-.176h.002a1.12 1.12 0 00-.326-.471l-.002-.001a.487.487 0 00-.703.071l-.001.001a.534.534 0 00.087.751l.001.001s-.04 0-.128-.08a14.356 14.356 0 01-2.865-2.746l-.023-.03-.352 1.248a21.1 21.1 0 002.535 2.3l.049.036c.208.193.487.312.795.312H22.077c.312 0 .591-.139.779-.359l.001-.001v-.04l-.12-.088a.513.513 0 01-.087-.729l-.001.001zM22.008 15.632v.016a.512.512 0 01-.512.512c-.568 0-.984.04-1.28.064a2.687 2.687 0 00-.26.645l-.004.019a1.302 1.302 0 00.382 1.43l.002.002a.93.93 0 00.807.175l-.006.001c.496-.166.905-.48 1.187-.888l.005-.008c.144-.017.274-.045.399-.084l-.015.004 2.64 2.152a.442.442 0 01.001-.251l-.001.003a.52.52 0 01.636-.375l-.004-.001h.056l-.072-.232-2.808-2.296a.55.55 0 00-.524-.078l.004-.001a3.193 3.193 0 01-.406.13l-.026.006a.517.517 0 00-.606.222l-.001.002a2.53 2.53 0 01-.656.691l-.008.005a.795.795 0 01.082-.604l-.002.004a1.812 1.812 0 011.39-1.047l.01-.001s.68-.12 2.256.696a.505.505 0 00.395-.001l-.003.001.224-.064-.192-.672a.475.475 0 01.001-.371l-.001.003-.168.056c-1.808-.896-2.648-.728-2.744-.696a2.677 2.677 0 00-.91.303l.014-.007h.128a.527.527 0 01.592.524v.013-.001z" xmlns="http://www.w3.org/2000/svg"/>
    <path fill="var(--secondary-color)" d="M25.72 20.056a.507.507 0 01-.367-.381l-.001-.003-.088.104-.072-.056-.648.8-.112.088-.288-.248a.534.534 0 00-.735.095l-.001.001a.574.574 0 00.063.799l.001.001-.088-.056a.536.536 0 00-.402-.112h.003a.481.481 0 00-.335.175l-.001.001a.511.511 0 00.063.728l.001.001.12.088c.178.13.399.21.639.216h.001c.32-.007.604-.151.799-.375l.001-.001c.052-.067.1-.143.14-.224l.004-.008.053.001c.339 0 .64-.159.833-.407l.002-.002c.132-.13.234-.291.294-.472l.002-.008c.222-.071.409-.199.551-.366l.001-.002a1.07 1.07 0 00.182-.313l.002-.007h-.189c-.152 0-.299-.02-.439-.059l.012.003zM19.672 16.28h-.152a.534.534 0 01-.268.072h-.012a.484.484 0 01-.242-.065l.002.001a.52.52 0 01-.207-.706l-.001.003c.08-.152.168-.288.904-.384a.455.455 0 00-.221-.143l-.003-.001-2.016-.576a.532.532 0 00-.647.356l-.001.004-1.176 4.176a.535.535 0 00.041.403l-.001-.003a.526.526 0 00.308.239l.004.001 2.024.576H18.154a.514.514 0 00.493-.372l.001-.004v-.08L19 18.529zM16.8 18.832l.904-3.2 1.016.288-.904 3.2zM29.32 19.2l-1.184-4.176a.522.522 0 00-.245-.311l-.003-.001a.556.556 0 00-.396-.047l.004-.001-2.024.536a.524.524 0 00-.311.238l-.001.002a.475.475 0 00.001.371l-.001-.003.192.672.648 2.312.072.232a.428.428 0 00.235-.001l-.003.001a.526.526 0 11.799.681l.001-.001c-.18.2-.427.337-.706.375l-.006.001c.046.1.117.182.206.239l.002.001a.564.564 0 00.256.064H27l2.016-.576a.521.521 0 00.303-.612l.001.004zm-2.12 0l-.904-3.2 1.016-.288.904 3.2z" xmlns="http://www.w3.org/2000/svg"/>
    <path fill="var(--secondary-color)" d="M18.792 15.616a.52.52 0 00.205.703l.003.001c.069.04.151.064.24.064h.013a.541.541 0 00.271-.073l-.003.001h.152c.112 0 .288-.04.544-.056s.712-.048 1.28-.064a.512.512 0 00.512-.512v-.017.001a.528.528 0 00-.528-.512h-.137c-.587.006-1.159.043-1.722.111l.074-.007c-.736.072-.824.208-.904.36zM27 18.976a.517.517 0 00-.735.055l-.001.001a.428.428 0 01-.235-.001l.003.001h-.056a.52.52 0 00-.631.372l-.001.004a.442.442 0 00.001.251l-.001-.003a.507.507 0 00.364.383l.003.001c.118.03.253.048.392.048h.224c.285-.039.532-.176.711-.375l.001-.001a.518.518 0 00-.039-.735z" xmlns="http://www.w3.org/2000/svg"/>
</svg>
