<svg xmlns="http://www.w3.org/2000/svg" viewBox="0 0 32 32">
    <path fill="var(--main-color)" d="M27.936 4.552a.792.792 0 00-.805-.07l.005-.002L4.192 16.2a.802.802 0 00-.408.746v-.002a.746.746 0 00.515.655l.005.001 9.464 2.96v6.312a.617.617 0 00.34.654l.004.002a.525.525 0 00.271.08h.001a.702.702 0 00.598-.333l.002-.003 3.664-5.192 4.336 1.36h.211a.716.716 0 00.376-.106l-.003.002a.748.748 0 00.359-.467l.001-.005L28.2 5.328a.791.791 0 00-.262-.775l-.001-.001zM14.824 25.728V20.88l2.776.88zM23 22.352l-7.8-2.448 7.92-8.8a.524.524 0 00-.04-.735.518.518 0 00-.735.039v.001l-8.264 9.152-8.8-2.76L27.049 5.689z" xmlns="http://www.w3.org/2000/svg"/>
</svg>
