<svg xmlns="http://www.w3.org/2000/svg" viewBox="0 0 32 32">
    <path fill="var(--main-color)" d="M27.344 10.656c-.408-3.68-3.544-6.36-6.128-6.36h-.104a18.755 18.755 0 00-4.461.754l.133-.034a2.882 2.882 0 01-1.62-.005l.02.005a18.115 18.115 0 00-4.285-.718l-.043-.002c-2.584 0-5.824 2.632-6.232 6.4-.376 3.432-.44 11.952 7.12 16.8.234.15.518.238.824.238.267 0 .517-.067.736-.186l-.008.004c.476-.254.795-.745.8-1.311v-.001c.04-4.568.8-7.64 1.872-7.64 1.08 0 1.832 3.072 1.872 7.64.005.567.324 1.058.792 1.308l.008.004c.203.116.447.184.707.184h.022-.001c.297-.008.572-.097.807-.244l-.007.004c7.616-4.888 7.552-13.408 7.176-16.84zm-7.68 15.928a.478.478 0 01-.498-.001l.002.001a.48.48 0 01-.248-.407v-.001c0-3.952-.568-8.672-2.912-8.672s-2.88 4.72-2.912 8.672a.48.48 0 01-.246.407l-.002.001a.478.478 0 01-.498-.001l.002.001c-7.08-4.536-7.016-12.576-6.664-15.816s3.04-5.488 5.168-5.432c1.482.075 2.877.318 4.207.712l-.127-.032a4.011 4.011 0 002.156-.007l-.028.007a17.276 17.276 0 014.037-.678l.043-.002h.08c2.096 0 4.744 2.336 5.088 5.432.352 3.24.416 11.28-6.648 15.816z" xmlns="http://www.w3.org/2000/svg"/>
    <path fill="var(--main-color)" d="M20.424 7.568a6.337 6.337 0 01-3.179 1.135l-.021.001C12.92 9.256 11 7.488 10.96 7.448a.532.532 0 00-.736.001.528.528 0 000 .736c.08.08 1.728 1.664 5.368 1.664a14.161 14.161 0 001.833-.128l-.073.008a7.494 7.494 0 003.743-1.368l-.023.016-.272-.424z" xmlns="http://www.w3.org/2000/svg"/>
</svg>
