<svg xmlns="http://www.w3.org/2000/svg" viewBox="0 0 32 32">
    <path fill="var(--main-color)" d="M24.048 8.192l-3.08-3.04a1.053 1.053 0 00-.8-.368H8.8a1.264 1.264 0 00-1.224 1.263v19.905c.004.679.547 1.23 1.222 1.248H23.2a1.264 1.264 0 001.256-1.264V9.024a1.12 1.12 0 00-.406-.831l-.002-.002zm-1.16.312h-2.184V6.352zm.312 17.672H8.8a.224.224 0 01-.216-.224V6.056v-.008c0-.121.096-.22.216-.224h10.864v3.2c0 .287.233.52.52.52h3.2V25.956c0 .11-.079.201-.183.22H23.2z" xmlns="http://www.w3.org/2000/svg"/>
    <path fill="var(--main-color)" d="M20.68 20.592h-9.336a.52.52 0 000 1.04h9.336a.52.52 0 000-1.04zM20.68 17.808h-9.336a.52.52 0 000 1.04h9.336a.528.528 0 00.528-.52.528.528 0 00-.528-.52zM20.68 15.016h-9.336a.52.52 0 000 1.04h9.336a.52.52 0 000-1.04zM11.344 13.264h5.192a.52.52 0 000-1.04h-5.192a.52.52 0 000 1.04z" xmlns="http://www.w3.org/2000/svg"/>
</svg>
