<svg xmlns="http://www.w3.org/2000/svg" viewBox="0 0 32 32">
    <path fill="var(--main-color)" d="M25.416 9.768l-3.2-3.2a1.142 1.142 0 00-.799-.336h-.005a1.11 1.11 0 00-.796.336C9.936 17.256 8.856 18.328 8.752 18.44c-.104.112-.208.208-2.344 5.6l-.056.144a1.14 1.14 0 00.248 1.248c.206.203.488.331.799.336H7.417a.964.964 0 00.413-.091l-.006.003.128-.08c5.4-2.152 5.496-2.248 5.6-2.4l11.864-11.808a1.147 1.147 0 000-1.624zM7.568 24.656l-.128.048h-.12v-.12l.064-.144a219.159 219.159 0 011.912-4.712l3.024 3.024c-.776.296-2.256.904-4.752 1.904zm17.112-14L13.192 22.152l-3.344-3.344L21.344 7.32h.152l3.2 3.2z" xmlns="http://www.w3.org/2000/svg"/>
</svg>
