<svg xmlns="http://www.w3.org/2000/svg" viewBox="0 0 32 32">
    <path fill="var(--main-color)" d="M16 17.84h.04a5.64 5.64 0 10-5.64-5.64v.042-.002a5.64 5.64 0 005.598 5.6H16zM16 7.6h.008a4.6 4.6 0 110 9.2 4.6 4.6 0 01-4.6-4.6 4.608 4.608 0 014.591-4.6H16zM25.136 20.688a46.919 46.919 0 00-4.566-2.272l-.33-.128a.529.529 0 00-.623.166l-.001.001a4.97 4.97 0 01-3.602 1.895l-.014.001a5.055 5.055 0 01-3.616-1.894l-.008-.01a.521.521 0 00-.627-.167l.003-.001a50.288 50.288 0 00-5.137 2.534l.257-.134a.522.522 0 00-.264.448v3.416c0 .237.161.437.38.495l.004.001c.872.24 1.672.544 2.448.8 1.934.87 4.192 1.376 6.568 1.376s4.634-.507 6.672-1.418l-.104.041c.629-.256 1.444-.53 2.277-.76l.171-.04a.521.521 0 00.384-.502V21.134a.519.519 0 00-.269-.447l-.003-.001zm-.8 3.456c-.8.232-1.464.496-2.152.752-1.825.826-3.956 1.308-6.2 1.308s-4.375-.481-6.297-1.347l.097.039a28.163 28.163 0 00-2.152-.752v-2.72c1.448-.8 3.368-1.688 4.152-2.04a5.826 5.826 0 004.206 2.008H16a5.824 5.824 0 004.186-2.001l.006-.007c.8.352 2.72 1.224 4.168 2.048z" xmlns="http://www.w3.org/2000/svg"/>
</svg>
