<svg xmlns="http://www.w3.org/2000/svg" viewBox="0 0 32 32">
    <path fill="var(--main-color)" d="M18.4 9.848a2.068 2.068 0 00-.714-.491l-.014-.005a2.433 2.433 0 00-.958-.192h-.045.002l-.068-.001c-.524 0-1.026.097-1.488.274l.028-.01a2.878 2.878 0 00-1.164.851l-.004.005a.518.518 0 00.087.727l.001.001a.511.511 0 00.727-.079l.001-.001c.19-.233.435-.414.716-.524l.012-.004a3.085 3.085 0 011.147-.192h-.003l.045-.001c.194 0 .38.038.549.108l-.01-.004c.155.065.288.154.4.264.091.096.164.211.214.337l.002.007c.05.108.079.235.08.368l.001.039c0 .154-.033.3-.091.432l.003-.007a1.427 1.427 0 01-.272.376 3.3 3.3 0 01-.392.346l-.008.006a4.488 4.488 0 00-.522.426l.002-.002c-.18.168-.334.36-.458.572l-.006.012a6.776 6.776 0 00-.2 1.832v-.008a.52.52 0 001.04 0c0-.328.048-1.208.072-1.32.075-.13.166-.24.271-.335l.001-.001c.126-.121.261-.234.405-.337l.011-.007c.199-.145.374-.297.535-.463l.001-.001c.179-.181.331-.389.449-.618l.007-.014c.126-.264.2-.574.2-.901v-.037.002a2.05 2.05 0 00-.592-1.432zM17.224 18.088a.68.68 0 11-1.359.001.68.68 0 011.359-.001z" xmlns="http://www.w3.org/2000/svg"/>
    <path fill="var(--main-color)" d="M20.552 4.32h-7.448c-4.376 0-8.072 4.104-8.072 8.96 0 4.456 2.92 7.88 5.872 8.8v5.315c0 .206.12.384.293.468l.003.001c.065.03.141.048.222.048h.003a.521.521 0 00.336-.121l-.001.001 6.632-5.6h2.16c4.264 0 7.872-4.096 7.872-8.936S24.8 4.32 20.552 4.32zm0 16.8h-2.351a.505.505 0 00-.33.121l.001-.001-5.928 5v-4.552a.528.528 0 00-.404-.511l-.004-.001c-2.68-.624-5.464-3.752-5.464-7.896s3.288-7.92 7.032-7.92h7.448c3.704 0 6.832 3.616 6.832 7.896s-3.128 7.896-6.832 7.896z" xmlns="http://www.w3.org/2000/svg"/>
</svg>
