<svg xmlns="http://www.w3.org/2000/svg" viewBox="0 0 32 32">
    <path fill="var(--main-color)" d="M21.6 24.736a.52.52 0 00-.52.52v.96a.247.247 0 01-.24.24H6.088a.241.241 0 01-.224-.239V5.792v-.001c0-.129.098-.234.223-.247H17.224v3.312c0 .287.233.52.52.52h3.304v3.248a.52.52 0 001.04 0V8.84a1.124 1.124 0 00-.383-.839L21.704 8l-3.16-3.12a1.04 1.04 0 00-.8-.376H6.08a1.28 1.28 0 00-1.28 1.28v20.432a1.28 1.28 0 001.272 1.28H20.8a1.28 1.28 0 001.28-1.28v-.96-.002a.52.52 0 00-.478-.518H21.6zM20.552 8.32h-2.288V6.064z" xmlns="http://www.w3.org/2000/svg"/>
    <path fill="var(--main-color)" d="M14 22.16H8.68a.52.52 0 000 1.04H14a.52.52 0 000-1.04zM14 19.296H8.68a.52.52 0 000 1.04H14a.52.52 0 000-1.04zM14 16.432H8.68a.52.52 0 000 1.04H14a.52.52 0 000-1.04zM8.68 14.608h3.688a.52.52 0 000-1.04H8.68a.528.528 0 00-.528.52c.005.288.239.52.528.52z" xmlns="http://www.w3.org/2000/svg"/>
    <path fill="var(--secondary-color)" d="M24.152 20.136a.528.528 0 00-.702.205l-.001.003a2.099 2.099 0 01-1.744 1.255l-.008.001a2.277 2.277 0 01-1.965-1.704l-.003-.016h2.344a.52.52 0 000-1.04h-2.544v-.28-.28h2.544a.52.52 0 000-1.04h-2.344a2.279 2.279 0 011.958-1.727l.01-.001c.741.046 1.37.48 1.691 1.101l.005.011a.52.52 0 10.895-.53l.001.002a3.05 3.05 0 00-2.587-1.6h-.005c-1.416 0-2.608 1.16-3.048 2.768h-.568a.52.52 0 000 1.04h.408v.56h-.408a.52.52 0 000 1.04h.568c.44 1.6 1.6 2.76 3.048 2.76a3.108 3.108 0 002.656-1.742l.008-.018a.518.518 0 00-.205-.766l-.003-.001z" xmlns="http://www.w3.org/2000/svg"/>
</svg>
