<svg xmlns="http://www.w3.org/2000/svg" viewBox="0 0 32 32">
    <path fill="var(--main-color)" d="M26.864 13.472a1.139 1.139 0 00-1.063-.8H25.8l-6.6-.12L17.08 6.4a1.13 1.13 0 00-1.079-.8H16a1.136 1.136 0 00-1.078.792l-.002.008-2.12 6.152-6.568.128a1.144 1.144 0 00-.667 2.062l.003.002 5.224 3.92-1.896 6.2a1.117 1.117 0 00.413 1.254l.003.002a1.107 1.107 0 001.331-.002l-.003.002L16 22.4l5.4 3.712a1.144 1.144 0 001.733-1.288l.002.008-1.896-6.2 5.224-3.92a1.135 1.135 0 00.398-1.248l.002.008zm-1.024.44l-5.512 4.136a.529.529 0 00-.191.572l-.001-.004 2.008 6.552-.04.112h-.12l-5.688-3.92a.524.524 0 00-.594.001l.002-.001-5.688 3.92h-.12v-.12l2.008-6.552a.526.526 0 00-.191-.567l-.001-.001-5.552-4.128v-.12l.096-.072 6.888-.12a.528.528 0 00.487-.348l.001-.004 2.272-6.472s0-.064.096-.064h.005c.042 0 .077.026.09.064v.001l2.304 6.456a.52.52 0 00.479.352l6.929.136.096.072z" xmlns="http://www.w3.org/2000/svg"/>
</svg>
