<svg xmlns="http://www.w3.org/2000/svg" viewBox="0 0 32 32">
    <path fill="var(--main-color)" d="M21.12 12.08a.52.52 0 00-.52.52v6.296h-9.2V12.6a.52.52 0 00-1.04 0v13.6a.52.52 0 001.04 0v-6.264h9.2v6.296a.52.52 0 001.04 0v-13.6l.001-.032a.52.52 0 00-.52-.52h-.001z" xmlns="http://www.w3.org/2000/svg"/>
    <path fill="var(--main-color)" d="M26.536 12.04l-9.688-6.528c-.241-.165-.539-.263-.86-.263s-.619.098-.865.267l.005-.003-9.664 6.488a.522.522 0 10.586.862l-.002.001L15.712 6.4a.493.493 0 01.554.001l-.002-.001 9.688 6.52a.485.485 0 00.28.088h.013a.52.52 0 00.426-.222l.001-.002a.513.513 0 00-.134-.743l-.002-.001z" xmlns="http://www.w3.org/2000/svg"/>
</svg>
