<svg xmlns="http://www.w3.org/2000/svg" viewBox="0 0 32 32">
    <path fill="var(--main-color)" d="M13.36 8.992l2.12-2.128V18.12a.52.52 0 001.04 0V6.864l2.12 2.128a.555.555 0 00.367.152h.001a.53.53 0 00.368-.152.512.512 0 000-.736L16.368 5.24l-.168-.112a.573.573 0 00-.404.001l.004-.001-.168.112-3.008 3.016a.512.512 0 000 .736.528.528 0 00.736 0z" xmlns="http://www.w3.org/2000/svg"/>
    <path fill="var(--main-color)" d="M23.72 11.344h-4.688a.52.52 0 000 1.04H23.2v13.488H8.8V12.384h4.168a.52.52 0 000-1.04H8.28a.528.528 0 00-.52.52V26.4a.528.528 0 00.52.52h15.44a.528.528 0 00.52-.52V11.864a.528.528 0 00-.52-.52z" xmlns="http://www.w3.org/2000/svg"/>
</svg>
