<svg xmlns="http://www.w3.org/2000/svg" viewBox="0 0 32 32">
    <path fill="var(--secondary-color)" d="M25.256 15.488a4.8 4.8 0 100 6.745c.855-.866 1.384-2.057 1.384-3.372s-.528-2.506-1.384-3.373v.001zm-.736 6.008a3.731 3.731 0 01-5.272-5.28 3.731 3.731 0 015.272 5.28z" xmlns="http://www.w3.org/2000/svg"/>
    <path fill="var(--secondary-color)" d="M23.632 17.704l-2.4 2.104-.704-.608a.532.532 0 00-.705.799h.001l1.016.92a.523.523 0 00.352.136h.006a.49.49 0 00.33-.128l2.784-2.4a.526.526 0 10-.681-.799l.001-.001z" xmlns="http://www.w3.org/2000/svg"/>
    <path fill="var(--main-color)" d="M22.088 24.736a.52.52 0 00-.52.52v.96a.24.24 0 01-.232.24H6.616a.24.24 0 01-.232-.24V5.792a.257.257 0 01.231-.248H17.752v3.312c0 .287.233.52.52.52H21.6v3.248a.52.52 0 001.04 0V8.84a1.129 1.129 0 00-.406-.839L22.232 8l-3.16-3.12a1.056 1.056 0 00-.8-.376H6.616a1.28 1.28 0 00-1.272 1.28v20.432a1.28 1.28 0 001.272 1.28h14.72a1.28 1.28 0 001.272-1.28v-.96a.52.52 0 00-.52-.52zM21.08 8.32h-2.288V6.064z" xmlns="http://www.w3.org/2000/svg"/>
    <path fill="var(--main-color)" d="M14.528 22.16H9.2a.52.52 0 000 1.04h5.328a.52.52 0 000-1.04zM14.528 19.296H9.2a.52.52 0 000 1.04h5.328a.52.52 0 000-1.04zM14.528 16.432H9.2a.52.52 0 000 1.04h5.328a.52.52 0 000-1.04zM9.2 14.608h3.696a.52.52 0 000-1.04H9.2a.52.52 0 000 1.04z" xmlns="http://www.w3.org/2000/svg"/>
</svg>
