<svg xmlns="http://www.w3.org/2000/svg" viewBox="0 0 32 32">
    <path fill="var(--main-color)" d="M26.872 16.2a.573.573 0 00-.001-.404l.001.004-.112-.168-3.016-3.008a.512.512 0 00-.736 0 .528.528 0 000 .736l2.128 2.12H13.88a.52.52 0 000 1.04h11.256l-2.128 2.12a.528.528 0 000 .736.518.518 0 00.367.152h.012c.14 0 .267-.058.357-.152l3.016-3.008z" xmlns="http://www.w3.org/2000/svg"/>
    <path fill="var(--main-color)" d="M20.136 18.512a.52.52 0 00-.52.52V23.2H6.128V8.8h13.488v4.168a.52.52 0 001.04 0V8.28a.528.528 0 00-.52-.52H5.6a.528.528 0 00-.52.52v15.44a.528.528 0 00.52.52h14.536a.528.528 0 00.52-.52v-4.688a.52.52 0 00-.52-.52z" xmlns="http://www.w3.org/2000/svg"/>
</svg>
