<svg xmlns="http://www.w3.org/2000/svg" viewBox="0 0 32 32">
    <path fill="var(--main-color)" d="M16 24.448a.52.52 0 00.431-.23l.001-.002c.248-.384 6.088-9.296 6.088-12.728a6.52 6.52 0 10-13.04 0c0 3.432 5.84 12.344 6.088 12.728a.52.52 0 00.432.232zm0-18.4a5.48 5.48 0 015.48 5.48c0 2.4-3.624 8.568-5.48 11.48-1.856-2.912-5.48-9.088-5.48-11.48v-.04A5.48 5.48 0 0116 6.008z" xmlns="http://www.w3.org/2000/svg"/>
    <path fill="var(--main-color)" d="M18.4 10.832a2.4 2.4 0 10-2.4 2.4 2.4 2.4 0 002.4-2.4zm-3.712 0a1.336 1.336 0 111.336 1.336h-.025H16h-.008a1.329 1.329 0 01-1.328-1.328v-.008z" xmlns="http://www.w3.org/2000/svg"/>
    <path fill="var(--secondary-color)" d="M18.88 22.312a.521.521 0 00-.204 1.023l.003.001c1.704.328 2.472.904 2.472 1.208 0 .488-1.824 1.448-5.152 1.448s-5.152-.96-5.152-1.448c0-.304.8-.88 2.496-1.216a.52.52 0 00-.202-1.016h.002c-2.12.408-3.336 1.224-3.336 2.232 0 1.6 3.12 2.488 6.192 2.488s6.192-.856 6.192-2.488c0-1.008-1.208-1.816-3.312-2.232z" xmlns="http://www.w3.org/2000/svg"/>
</svg>
