<svg xmlns="http://www.w3.org/2000/svg" viewBox="0 0 32 32">
    <path fill="var(--main-color)" d="M14.6 16.232c2.864 0 5.024-4.048 5.024-6.664a5.028 5.028 0 00-5.011-4.661 5.025 5.025 0 00-5.012 4.678L9.6 9.6c0 2.584 2.136 6.632 5 6.632zm0-10.632a4 4 0 014 4c0 2.168-1.824 5.6-4 5.6s-4-3.456-4-5.6a4 4 0 014-4zM20.128 17.288a.52.52 0 00-.372-.631l-.004-.001c-.488-.12-.992-.224-1.504-.312a.504.504 0 00-.559.293l-.001.003c-.576 1.272-1.736 2.768-3.088 2.768s-2.512-1.496-3.088-2.768a.505.505 0 00-.563-.295l.003-.001a18.318 18.318 0 00-6.161 2.191l.089-.047a.52.52 0 00-.256.448V23.546c0 .239.161.44.38.501l.004.001a69.46 69.46 0 011.84.528c1.384.4 2.816.8 4.28 1.088a19.51 19.51 0 003.529.312h.058-.003c2.112 0 2.304 0 2.928-.248a.523.523 0 10-.332-.991l.004-.001c-.488.168-.592.2-2.6.2h-.071c-1.177 0-2.328-.108-3.445-.314l.116.018c-1.408-.256-2.816-.672-4.176-1.064l-1.472-.424V19.24a16.927 16.927 0 014.971-1.791l.109-.017c.8 1.52 2.144 3.016 3.856 3.016s3.072-1.496 3.856-3.016l1.04.232a.52.52 0 00.631-.372l.001-.004z" xmlns="http://www.w3.org/2000/svg"/>
    <path fill="var(--secondary-color)" d="M25.832 20.84H25.6v-1.176a2.233 2.233 0 00-4.456-.006v1.182h-.208a1.335 1.335 0 00-1.328 1.336v.025-.001L20 25.872v.008c0 .729.591 1.32 1.32 1.32h4.176c.712 0 1.29-.57 1.304-1.279v-.001l.4-3.768a1.32 1.32 0 00-1.32-1.313l-.05.001h.002zm-3.616-1.176a1.2 1.2 0 112.4 0v1.176h-2.4zm3.552 6.2a.288.288 0 01-.288.288h-4.152a.296.296 0 01-.29-.296l.002-.033v.001l-.36-3.672a.28.28 0 01.28-.272h4.888c.137 0 .251.095.28.222v.002z" xmlns="http://www.w3.org/2000/svg"/>
    <path fill="var(--secondary-color)" d="M23.4 23.344a.52.52 0 00-.52.52v.648a.52.52 0 001.04 0v-.648a.52.52 0 00-.52-.52z" xmlns="http://www.w3.org/2000/svg"/>
</svg>
