<svg xmlns="http://www.w3.org/2000/svg" viewBox="0 0 32 32">
    <path fill="var(--main-color)" d="M14.696 16.264c2.92 0 5.12-4.12 5.12-6.792a5.12 5.12 0 10-10.24 0c.024 2.672 2.2 6.792 5.12 6.792zm0-10.872a4.09 4.09 0 014.08 4.08c0 2.216-1.864 5.752-4.08 5.752s-4.072-3.536-4.072-5.752a4.08 4.08 0 014.072-4.08zM20.504 17.4a.52.52 0 00-.372-.631l-.004-.001a19.512 19.512 0 00-1.704-.376.527.527 0 00-.567.301l-.001.003a3.357 3.357 0 01-1.212 1.456l-.012.008c-.555-.332-1.225-.529-1.94-.529s-1.385.196-1.957.538l.018-.01a3.328 3.328 0 01-1.208-1.45l-.008-.022a.513.513 0 00-.563-.304h.003c-2.32.4-4.395 1.168-6.267 2.248l.091-.048a.537.537 0 00-.256.456v5.6c.002.239.162.44.38.503l.004.001c.512.136 1.048.296 1.6.464 1.08.32 2.312.68 3.592.968h.112a.528.528 0 00.511-.404l.001-.004a.52.52 0 00-.389-.623l-.004-.001c-1.256-.28-2.464-.632-3.528-.952l-1.224-.36v-4.896a17.232 17.232 0 015.098-1.831l.11-.017c.362.668.881 1.21 1.51 1.59l.018.01c.089.806.361 1.534.772 2.163l-.012-.019.136.136-.928 5.264a.509.509 0 00.144.456l1.952 2a.544.544 0 00.367.152h.001a.5.5 0 00.368-.16l1.848-1.976a.526.526 0 00.136-.443v.003l-.928-5.264.144-.16a4.743 4.743 0 00.742-2.108l.002-.02a4.228 4.228 0 001.533-1.579l.011-.021c.416.08.8.176 1.24.28a.52.52 0 00.639-.389l.001-.003zM16.04 19a2.912 2.912 0 01-.463 1.411l.007-.011a7.692 7.692 0 00-1.821.004l.037-.004a4.86 4.86 0 01-.407-.997l-.009-.035a.501.501 0 00.263-.285l.001-.003a.557.557 0 000-.228l.001.004a2.8 2.8 0 012.406.151L16.041 19zm-1.296 9l-1.4-1.4.904-5.104a6.618 6.618 0 01.917.001l-.021-.001.904 5.128z" xmlns="http://www.w3.org/2000/svg"/>
    <path fill="var(--secondary-color)" d="M25.832 20.84H25.6v-1.176a2.233 2.233 0 00-4.456-.006v1.182h-.208a1.335 1.335 0 00-1.328 1.336v.025-.001L20 25.872v.008c0 .729.591 1.32 1.32 1.32h4.176c.712 0 1.29-.57 1.304-1.279v-.001l.4-3.768a1.32 1.32 0 00-1.32-1.313l-.05.001h.002zm-3.616-1.176a1.2 1.2 0 112.4 0v1.176h-2.4zm3.552 6.2a.288.288 0 01-.288.288h-4.152a.296.296 0 01-.29-.296l.002-.033v.001l-.36-3.672a.28.28 0 01.28-.272h4.873l.021-.001a.28.28 0 01.274.223v.002z" xmlns="http://www.w3.org/2000/svg"/>
    <path fill="var(--secondary-color)" d="M23.4 23.344a.52.52 0 00-.52.52v.648a.52.52 0 001.04 0v-.648a.52.52 0 00-.52-.52z" xmlns="http://www.w3.org/2000/svg"/>
</svg>
