<svg xmlns="http://www.w3.org/2000/svg" viewBox="0 0 32 32">
    <path fill="var(--main-color)" d="M24.392 7.864l-3.2-3.2a1.079 1.079 0 00-.799-.376H8.496c-.716 0-1.296.58-1.296 1.296v.017V5.6v20.8c0 .71.571 1.287 1.279 1.296h15.025c.716 0 1.296-.58 1.296-1.296V8.712a1.094 1.094 0 00-.406-.846l-.002-.002zm-1.144.328h-2.352V5.864zm.24 18.464H8.504a.257.257 0 01-.24-.256V5.599v-.008c0-.136.106-.247.239-.255H19.848v3.376c.005.288.239.52.528.52h3.36V26.4c0 .139-.11.251-.248.256z" xmlns="http://www.w3.org/2000/svg"/>
    <path fill="var(--main-color)" d="M21.28 11.144H10.704a.52.52 0 00-.52.52v11.648c0 .287.233.52.52.52H21.28a.52.52 0 00.52-.52V11.664a.52.52 0 00-.52-.52zm-.48 5.824h-2.848v-1.872H20.8zm-3.848 0h-2.848v-1.872h2.808zm-3.856 0H11.2v-1.872h1.832zm-1.896 1.04h1.832v1.872H11.2zm2.88 0h2.808v1.872h-2.784zm3.848 0H20.8v1.872h-2.848zm2.872-3.952h-2.848v-1.872H20.8zm-3.848 0h-2.848v-1.872h2.808zM11.2 12.184h1.832v1.872H11.2zm0 8.736h1.832v1.872H11.2zm2.88 0h2.808v1.872h-2.784zm6.72 1.872h-2.848V20.92H20.8z" xmlns="http://www.w3.org/2000/svg"/>
</svg>
