<svg xmlns="http://www.w3.org/2000/svg" viewBox="0 0 32 32">
    <path fill="var(--main-color)" d="M28.592 13.808h-1.336c-.862-1.906-2.746-3.208-4.935-3.208a5.398 5.398 0 00-4.651 2.655l-.014.025a2.238 2.238 0 00-1.751-.872h-.001c-.71.003-1.34.342-1.74.867l-.004.005c-.954-1.614-2.685-2.68-4.665-2.68a5.4 5.4 0 00-4.921 3.174l-.014.034H3.408a.52.52 0 000 1.04h.8a4.837 4.837 0 00-.128 1.117v.037V16a5.408 5.408 0 1010.816 0 5.339 5.339 0 00-.185-1.389l.009.037a1.177 1.177 0 012.352 0 5.134 5.134 0 00-.168 1.321v.033V16v.053a5.416 5.416 0 1010.689-1.242l.007.037h.992a.52.52 0 000-1.04zm-19.104 6.56A4.368 4.368 0 1113.856 16a4.376 4.376 0 01-4.368 4.368zm12.8 0a4.368 4.368 0 114.4-4.368 4.376 4.376 0 01-4.368 4.368z" xmlns="http://www.w3.org/2000/svg"/>
</svg>
