<svg xmlns="http://www.w3.org/2000/svg" viewBox="0 0 32 32">
    <path fill="var(--main-color)" d="M16 4.064C9.408 4.064 4.064 9.408 4.064 16S9.408 27.936 16 27.936 27.936 22.592 27.936 16C27.931 9.41 22.59 4.069 16 4.064zm0 22.832C9.982 26.896 5.104 22.018 5.104 16S9.982 5.104 16 5.104c6.018 0 10.896 4.878 10.896 10.896-.009 6.014-4.882 10.887-10.895 10.896H16z" xmlns="http://www.w3.org/2000/svg"/>
    <path fill="var(--main-color)" d="M14.28 15.256c.448-.45.725-1.071.725-1.756s-.277-1.306-.726-1.756a2.483 2.483 0 10-3.512 3.512c.449.45 1.07.729 1.756.729s1.307-.279 1.756-.729zm-2.776-2.776c.261-.262.621-.424 1.02-.424s.759.162 1.02.424a1.44 1.44 0 11-2.04-.001zM21.256 11.744c-.455-.437-1.074-.706-1.756-.706s-1.301.269-1.757.707l.001-.001a2.396 2.396 0 00-.728 1.722v.032-.002.008c0 .685.278 1.304.728 1.752a2.396 2.396 0 001.722.728h.032-.002a2.488 2.488 0 002.488-2.488v-.03c0-.675-.279-1.285-.728-1.721l-.001-.001zm-.736 2.776a1.468 1.468 0 01-2.04 0c-.262-.261-.424-.621-.424-1.02s.162-.759.424-1.02c.261-.262.621-.424 1.02-.424s.759.162 1.02.424c.262.261.424.621.424 1.02s-.162.759-.424 1.02zM16 17.96a4.472 4.472 0 00-3.992 3.168L12 21.16a.528.528 0 00.308.671l.004.001a.522.522 0 00.663-.309l.001-.004A3.457 3.457 0 0115.987 19l.013-.001a3.455 3.455 0 013.018 2.496l.006.024a.537.537 0 00.487.344h.177a.529.529 0 00.311-.675l.001.004c-.522-1.792-2.092-3.103-3.986-3.231L16 17.96z" xmlns="http://www.w3.org/2000/svg"/>
</svg>
