<svg xmlns="http://www.w3.org/2000/svg" viewBox="0 0 32 32">
    <path fill="var(--main-color)" d="M19.76 24.272a12.023 12.023 0 01-2.374-1.102l.054.03c.208-.272.377-.588.49-.929l.006-.023c.165-.166.278-.383.311-.626l.001-.006a1.143 1.143 0 00-.131-.717l.003.006v-.704a1.896 1.896 0 00-2.129-2.055l.009-.001a1.92 1.92 0 00-2.12 2.013v-.005.704a1.117 1.117 0 00-.127.71l-.001-.006c.033.252.146.472.312.64.12.364.289.68.502.96l-.006-.008a9.303 9.303 0 01-2.253 1.085l-.067.019a.801.801 0 00-.504.743v.953a.8.8 0 00.8.8h6.96a.8.8 0 00.8-.8v-.936a.8.8 0 00-.53-.742l-.006-.002zm-.56 1.448h-6.4v-.544c2.168-.856 2.68-1.272 2.8-1.688v-.536-.007a.504.504 0 00-.144-.353c-.2-.22-.35-.489-.429-.787l-.003-.013a.742.742 0 00-.239-.351l-.001-.001v-.088a.524.524 0 00.112-.325v-.875c0-.656.344-.968 1.08-.968s1.08.296 1.08.968v.859c0 .123.042.236.113.326l-.001-.001v.152a.527.527 0 00-.199.284l-.001.004c-.08.312-.23.581-.433.801l.001-.001a.502.502 0 00-.144.353v.544c.136.416.64.8 2.808 1.688zM28.352 12.464a11.772 11.772 0 01-2.38-1.101l.052.029v-.048c.216-.267.386-.581.491-.924l.005-.02a1.14 1.14 0 00.181-1.35l.003.006v-.704a1.896 1.896 0 00-2.129-2.007l.009-.001a1.92 1.92 0 00-2.12 2.013v-.005.704a1.187 1.187 0 00-.128.718l-.001-.006c.038.248.15.464.312.632.117.365.289.681.509.958l-.005-.006a9.85 9.85 0 01-2.281 1.1l-.071.02a.801.801 0 00-.504.736v.952a.8.8 0 00.8.8h6.952a.8.8 0 00.8-.8v-.952-.004a.8.8 0 00-.491-.738l-.005-.002zm-.544 1.456h-6.4v-.544c2.4-.952 2.696-1.344 2.8-1.696v-.536a.51.51 0 00-.152-.36 1.929 1.929 0 01-.429-.786l-.003-.014a.742.742 0 00-.239-.351l-.001-.001v-.088a.522.522 0 00.112-.32v-.88c0-.656.344-.968 1.08-.968s1.08.304 1.08.968v.864a.522.522 0 00.113.321l-.001-.001v.152a.527.527 0 00-.199.284l-.001.004c-.086.311-.239.58-.441.801l.001-.001a.537.537 0 00-.144.36v.536c.128.424.632.8 2.8 1.696zM11.2 12.464a12.07 12.07 0 01-2.382-1.102l.054.03v-.048c.205-.269.369-.583.474-.923l.006-.021a1.14 1.14 0 00.181-1.35l.003.006v-.704a1.903 1.903 0 00-2.129-2.015l.009-.001a1.92 1.92 0 00-2.12 2.013v-.005.704a1.073 1.073 0 00-.127.71l-.001-.006c.033.252.146.472.312.64.111.365.28.682.5.958l-.004-.006a9.427 9.427 0 01-2.26 1.085l-.068.019a.801.801 0 00-.496.74v.972a.8.8 0 00.8.8h6.952a.8.8 0 00.8-.8v-.952-.001a.8.8 0 00-.499-.741l-.005-.002zm-.56 1.456H4.192v-.544c2.4-.952 2.696-1.344 2.8-1.696v-.536-.007a.504.504 0 00-.144-.353 1.944 1.944 0 01-.437-.786l-.003-.014a.683.683 0 00-.238-.351l-.002-.001v-.088a.481.481 0 00.12-.318v-.883c0-.656.344-.968 1.08-.968s1.072.304 1.072.968v.864a.527.527 0 00.121.321l-.001-.001v.152a.527.527 0 00-.199.284l-.001.004a1.865 1.865 0 01-.441.801l.001-.001a.532.532 0 00-.144.36v.536c.128.424.632.8 2.808 1.696zM20.536 7.464a.487.487 0 00.256.072.52.52 0 00.266-.967l-.002-.001c-1.415-.824-3.115-1.311-4.928-1.311s-3.513.487-4.975 1.336l.047-.025a.512.512 0 00-.182.706l-.001-.002a.52.52 0 00.714.191l-.002.001c1.265-.734 2.784-1.167 4.404-1.167s3.139.433 4.447 1.189l-.043-.023zM25.416 15.584a.536.536 0 00-.576.453v.003a8.745 8.745 0 01-3.848 6.284l-.032.02a.55.55 0 00-.232.439v.001a.536.536 0 00.519.52h.001a.534.534 0 00.29-.089l-.002.001c2.364-1.573 3.989-4.095 4.332-7.01l.004-.046v-.064a.52.52 0 00-.453-.512h-.003zM7.424 16.04a.529.529 0 00-.578-.456h.002a.52.52 0 00-.456.516v.06a9.819 9.819 0 004.3 7.018l.036.022a.511.511 0 00.718-.15l.001-.002a.518.518 0 00.088-.279v-.001a.537.537 0 00-.23-.439l-.002-.001c-2.111-1.4-3.564-3.648-3.876-6.246l-.004-.042z" xmlns="http://www.w3.org/2000/svg"/>
</svg>
