<svg xmlns="http://www.w3.org/2000/svg" viewBox="0 0 32 32">
    <path fill="var(--main-color)" d="M24.512 17.152H22.68a.408.408 0 00-.4.4v2.84a.408.408 0 00.4.4.4.4 0 00.4-.4v-1.024h1.176a.4.4 0 100-.8H23.08v-.616h1.432a.4.4 0 100-.8z" xmlns="http://www.w3.org/2000/svg"/>
    <path fill="var(--main-color)" d="M26.328 14h-12.8A1.601 1.601 0 0012 15.558v6.882A1.601 1.601 0 0013.516 24H26.32a1.6 1.6 0 001.599-1.558V15.56A1.6 1.6 0 0026.327 14zm.52 8.44a.52.52 0 01-.52.52h-12.8a.52.52 0 01-.52-.52v-6.88a.52.52 0 01.52-.52h12.8a.52.52 0 01.52.52z" xmlns="http://www.w3.org/2000/svg"/>
    <path fill="var(--main-color)" d="M22.4 24.968a.52.52 0 00-.52.52v1.096c0 .15-.122.272-.272.272H5.416a.271.271 0 01-.264-.272V5.416c0-.147.117-.267.264-.272h12.368V8.56c0 .287.233.52.52.52h3.584v3.352a.52.52 0 001.04 0V8.56a1.045 1.045 0 00-.39-.798l-.002-.002L19.2 4.48a1.294 1.294 0 00-.913-.376H5.415a1.32 1.32 0 00-1.312 1.312v21.168a1.32 1.32 0 001.312 1.312h16.184a1.32 1.32 0 001.312-1.312v-1.096a.52.52 0 00-.512-.52zM21.36 8.04h-2.528V5.544z" xmlns="http://www.w3.org/2000/svg"/>
    <path fill="var(--main-color)" d="M16.568 17.152h-1.064a.4.4 0 00-.4.4v2.84a.4.4 0 00.4.4.408.408 0 00.4-.4v-.904h.664a1.24 1.24 0 001.312-1.198v-.002l.001-.039c0-.298-.123-.568-.32-.761a1.5 1.5 0 00-.951-.337l-.043.001h.002zm0 1.536h-.664v-.736h.672l.029-.001c.151 0 .291.048.405.13l-.002-.001a.271.271 0 01.073.185l-.001.024v-.001c0 .36-.4.4-.512.4zM19.792 17.152h-.96a.4.4 0 00-.4.4v2.84a.4.4 0 00.4.4h1.024a1.826 1.826 0 00-.058-3.632h-.006zm0 2.832H19.2v-2.032h.56a1.025 1.025 0 01.005 2.031l-.005.001z" xmlns="http://www.w3.org/2000/svg"/>
</svg>
