<svg xmlns="http://www.w3.org/2000/svg" viewBox="0 0 32 32">
    <path fill="var(--main-color)" d="M16 18.04a.52.52 0 00-.52.52v5.864a1.6 1.6 0 01-3.142.01l-.002-.01a.52.52 0 00-1.04 0 2.617 2.617 0 005.224.007V18.56a.52.52 0 00-.52-.52zM16.544 6.688v-1.2a.52.52 0 00-1.04 0v1.2C9.64 6.92 4.936 11.24 4.936 16.528c0 .287.233.52.52.52h.208a.529.529 0 00.495-.348l.001-.004c.291-.841 1.077-1.433 2-1.433s1.709.593 1.996 1.419l.004.015a.53.53 0 00.496.352h.288a.529.529 0 00.495-.348l.001-.004a2.113 2.113 0 013.996-.014l.004.015a.53.53 0 00.496.352h.192a.528.528 0 00.487-.348l.001-.004c.299-.832 1.081-1.417 2-1.417s1.701.585 1.995 1.402l.005.015c.072.205.263.35.488.352h.296a.522.522 0 00.487-.348l.001-.004c.299-.832 1.081-1.417 2-1.417s1.701.585 1.995 1.402l.005.015c.072.205.263.35.488.352h.152a.52.52 0 00.52-.52c.016-5.272-4.648-9.584-10.504-9.84zm7.36 7.536h-.003c-1.1 0-2.068.565-2.63 1.42l-.007.012a3.154 3.154 0 00-5.225-.09l-.007.01a3.153 3.153 0 00-5.225.068l-.007.012a3.154 3.154 0 00-4.669-.692l.005-.004c.84-4.12 4.944-7.256 9.864-7.256s8.984 3.104 9.848 7.2a3.098 3.098 0 00-1.944-.68z" xmlns="http://www.w3.org/2000/svg"/>
</svg>
