<svg xmlns="http://www.w3.org/2000/svg" viewBox="0 0 32 32">
    <path fill="var(--main-color)" d="M24.752 9.264H7.248a2.504 2.504 0 00-2.504 2.504v11.856a2.505 2.505 0 002.504 2.496h17.504a2.505 2.505 0 002.504-2.496V11.768a2.504 2.504 0 00-2.504-2.504zm1.464 14.4a1.464 1.464 0 01-1.464 1.456H7.248a1.464 1.464 0 01-1.464-1.456V11.768c0-.809.655-1.464 1.464-1.464h17.504c.809 0 1.464.655 1.464 1.464zM12.72 8.8a.52.52 0 00.52-.52V8a1.097 1.097 0 011.096-1.082l.067.002H14.4h3.2l.064-.002c.6 0 1.088.483 1.096 1.081v.345a.52.52 0 001.04 0V8a2.137 2.137 0 00-2.203-2.12h.003-3.2l-.064-.001a2.137 2.137 0 00-2.136 2.12v.345a.52.52 0 00.516.456h.004z" xmlns="http://www.w3.org/2000/svg"/>
</svg>
