<svg xmlns="http://www.w3.org/2000/svg" viewBox="0 0 32 32">
    <path fill="var(--main-color)" d="M21.376 24.2a.52.52 0 00-.52.52v.88a.2.2 0 01-.192.2H6.8a.192.192 0 01-.184-.192V6.399v-.001a.2.2 0 01.183-.199H17.256v3.088c0 .287.233.52.52.52h3.08v2.992a.52.52 0 001.04 0V9.255a1.101 1.101 0 00-.367-.799l-.001-.001-2.976-2.952a1.03 1.03 0 00-.783-.36H6.8a1.24 1.24 0 00-1.2 1.239V6.4v-.001 19.224c0 .669.534 1.214 1.199 1.232H20.665c.68 0 1.232-.552 1.232-1.232v-.025.001-.88a.52.52 0 00-.52-.52zM20.352 8.736h-2.056V6.72z" xmlns="http://www.w3.org/2000/svg"/>
    <path fill="var(--main-color)" d="M9.24 21.768a.52.52 0 000 1.04h5.008a.52.52 0 000-1.04zM28.104 13.6l-1.792-1.76a.877.877 0 00-.62-.256h-.013a.845.845 0 00-.607.256L18.4 18.512c-.104.104-.152.144-1.352 3.2l-.048.12a.881.881 0 00.184.952.87.87 0 00.609.248h.007c.142 0 .276-.03.399-.082l-.007.003c3.088-1.232 3.136-1.28 3.2-1.384l6.672-6.672a.88.88 0 00.04-1.295zm-7.36 7.12c-.208.096-.976.416-2.64 1.08.8-1.944 1.016-2.488 1.088-2.64l6.496-6.504 1.6 1.56c-.888.872-5.936 5.928-6.544 6.536z" xmlns="http://www.w3.org/2000/svg"/>
</svg>
