<svg xmlns="http://www.w3.org/2000/svg" viewBox="0 0 32 32">
    <path fill="var(--main-color)" d="M15.544 13.256a4.08 4.08 0 00-.488 1.944v.014a4.232 4.232 0 105.334-4.087l-.03-.007c.278-.568.44-1.236.44-1.942v-.019-.005a4.232 4.232 0 10-5.301 4.096l.029.007zM22.48 15.2a3.2 3.2 0 11-3.2-3.2 3.2 3.2 0 013.2 3.2zm-5.896-9.232a3.2 3.2 0 013.2 3.2 3.344 3.344 0 01-.536 1.813l.008-.013a4.156 4.156 0 00-3.045 1.349l-.003.003a3.2 3.2 0 01.376-6.343h.009zM26.4 21.096a1.645 1.645 0 00-.938-.291c-.267 0-.52.063-.743.176l-3.575 1.636a1.69 1.69 0 00-.788-.485l-.012-.003-5.144-1.504a16.776 16.776 0 00-3.043-.271c-.902 0-1.789.069-2.654.203l.096-.012v-.488a.52.52 0 00-.52-.52h-3.68a.52.52 0 00-.52.52v6.496c0 .287.233.52.52.52h3.712a.52.52 0 00.52-.52v-.952a3.754 3.754 0 011.395-.264c.194 0 .384.014.57.042l-.021-.003c1.939.903 4.207 1.443 6.598 1.472h.01a6.64 6.64 0 002.575-.391l-.046.015L26.136 24c.535-.227.916-.723.975-1.313l.001-.007a1.781 1.781 0 00-.707-1.581l-.005-.003zM8.592 26.032H5.92v-5.456h2.672zm17.12-2.96l-5.432 2.472c-.848.384-4.44.616-8.28-1.096a3.64 3.64 0 00-1.071-.157c-.478 0-.935.09-1.354.254l.025-.009V21.6c.796-.134 1.713-.21 2.648-.21s1.852.076 2.745.223l-.097-.013 5.128 1.504a.563.563 0 01.431.412l.001.004a.8.8 0 01-.201.697.558.558 0 01-.587.111l.004.001-5.392-1.6a.52.52 0 00-.299.999l.004.001 5.392 1.6c.153.045.33.072.512.072a1.6 1.6 0 00.847-.244l-.007.004a1.816 1.816 0 00.799-1.605v.005l3.608-1.64a.62.62 0 01.643.002l-.003-.002c.177.139.29.353.29.593l-.002.057v-.003a.577.577 0 01-.348.503l-.004.001z" xmlns="http://www.w3.org/2000/svg"/>
</svg>
