<svg xmlns="http://www.w3.org/2000/svg" viewBox="0 0 32 32">
    <path fill="var(--main-color)" d="M22.008 8.776zM20.896 8.688l-.424-.416h-2.288V6.016l-.48-.416-.104-.088h-.496l.048 3.288a.52.52 0 00.52.512h3.296V8.8z" xmlns="http://www.w3.org/2000/svg"/>
    <path fill="var(--main-color)" d="M21.664 24.68a.512.512 0 00-.512.512v.978a.207.207 0 01-.072.157.228.228 0 01-.159.08h-.001l-14.72.152a.248.248 0 01-.232-.24L5.752 5.903l.072-.184a.23.23 0 01.16-.072L17.6 5.519l.096.088 2.768 2.672.424.416.072.104v3.768a.52.52 0 00.52.512.512.512 0 00.512-.512v-.017.001-3.768a1.133 1.133 0 00-.391-.847l-.001-.001-3.2-3.08a1.02 1.02 0 00-.786-.368H17.6l-11.631.12a1.244 1.244 0 00-.895.399l-.001.001c-.223.23-.36.544-.36.89v.015-.001l.216 20.416c.012.341.153.647.376.872.227.227.541.368.888.368h.008l14.712-.152c.355-.006.674-.155.904-.392.223-.227.36-.537.36-.881v-.033.002-.92a.52.52 0 00-.512-.512z" xmlns="http://www.w3.org/2000/svg"/>
    <path fill="var(--main-color)" d="M8.744 23.28l5.336-.08a.528.528 0 00.512-.528.52.52 0 00-.52-.512l-5.32.056a.528.528 0 00-.52.52v.016c0 .286.227.519.511.528h.001zM8.72 20.416l5.328-.056a.528.528 0 00.512-.528.537.537 0 00-.528-.512l-5.32.056a.52.52 0 000 1.04zM8.688 17.552l5.32-.056a.52.52 0 000-1.04l-5.328.056a.52.52 0 000 1.04zM8.664 14.688l3.688-.04a.528.528 0 00.52-.52.568.568 0 00-.526-.52H8.648a.52.52 0 000 1.04z" xmlns="http://www.w3.org/2000/svg"/>
    <path fill="var(--secondary-color)" d="M27.2 15.936a1.24 1.24 0 00-1.238-1.176h-.01.001l-8 .088a1.21 1.21 0 00-1.152 1.2v1.192c0-.283.229-.512.512-.512h.52v-.68a.176.176 0 01.192-.152h-.001l8-.088c.096 0 .192.072.192.152v.68h.536c.283 0 .512.229.512.512v.008a.52.52 0 01-.512.52h-.52v3.2c0 .088-.088.152-.192.16l-8 .08-.018.001a.175.175 0 01-.174-.152v-3.201h-.52a.52.52 0 01-.52-.512l-.008 3.712a1.209 1.209 0 001.208 1.176h.026-.001l8-.08h.008c.669 0 1.211-.54 1.216-1.208z" xmlns="http://www.w3.org/2000/svg"/>
    <path fill="var(--secondary-color)" d="M17.304 17.768h.52l8.888-.088a.52.52 0 00.512-.52v-.009a.512.512 0 00-.512-.512h-.536l-8.88.088a.512.512 0 00-.512.512v.017-.001a.52.52 0 00.52.512zM19.2 20.264h1.872a.52.52 0 000-1.04L19.2 19.2a.52.52 0 00-.52.52v.016c0 .289.232.524.52.528z" xmlns="http://www.w3.org/2000/svg"/>
</svg>
