<svg xmlns="http://www.w3.org/2000/svg" viewBox="0 0 32 32">
    <path fill="var(--main-color)" d="M27.464 12a5.438 5.438 0 00-1.905-3.994L25.552 8a6.61 6.61 0 00-4.402-1.669c-.424 0-.838.04-1.239.115l.041-.006a5.86 5.86 0 00-3.939 2.445L16 8.904a5.859 5.859 0 00-3.911-2.5l-.033-.004a6.382 6.382 0 00-1.229-.116A6.56 6.56 0 006.45 7.95l.007-.006a5.424 5.424 0 00-1.92 4.051V12a7.023 7.023 0 001.868 5.252l-.004-.004c2.312 2.896 7.344 7.008 8.8 8.2.216.178.495.285.8.285s.584-.108.802-.287l-.002.002c1.48-1.192 6.512-5.304 8.8-8.152a7.065 7.065 0 001.863-5.319l.001.023zM24.8 16.6c-2.256 2.816-7.2 6.864-8.68 8a.21.21 0 01-.28 0c-1.44-1.136-6.4-5.192-8.696-8.04a6.14 6.14 0 01-1.543-4.581L5.6 12a4.51 4.51 0 011.593-3.339l.007-.005a5.35 5.35 0 013.718-1.376h-.006c.354.001.7.033 1.036.093l-.036-.005a4.873 4.873 0 013.643 2.754l.012.03a.545.545 0 00.943.003l.001-.003a4.874 4.874 0 013.628-2.78l.028-.004a5.575 5.575 0 014.718 1.294l-.006-.005.04.04A4.458 4.458 0 0126.399 12v.001a6.168 6.168 0 01-1.604 4.605l.004-.005z" xmlns="http://www.w3.org/2000/svg"/>
</svg>
