<svg xmlns="http://www.w3.org/2000/svg" viewBox="0 0 32 32">
    <path fill="var(--main-color)" d="M21.6 24.736a.52.52 0 00-.52.52v.96a.247.247 0 01-.24.24H6.096a.24.24 0 01-.232-.24V5.792v-.008a.24.24 0 01.232-.24h11.128v3.312a.528.528 0 00.52.52h3.304v3.248a.52.52 0 001.04 0V8.84c0-.335-.148-.635-.383-.839L21.704 8l-3.16-3.12a1.04 1.04 0 00-.8-.376H6.08a1.28 1.28 0 00-1.28 1.28v20.433a1.28 1.28 0 001.272 1.28H20.8a1.28 1.28 0 001.28-1.28v-.96-.002a.52.52 0 00-.478-.518H21.6zM20.552 8.32h-2.288V6.064z" xmlns="http://www.w3.org/2000/svg"/>
    <path fill="var(--main-color)" d="M14 22.16H8.68a.52.52 0 000 1.04H14a.52.52 0 000-1.04zM14 19.296H8.68a.52.52 0 000 1.04H14a.52.52 0 000-1.04zM14 16.432H8.68a.52.52 0 000 1.04H14a.52.52 0 000-1.04zM8.68 14.608h3.688a.52.52 0 000-1.04H8.68a.52.52 0 000 1.04z" xmlns="http://www.w3.org/2000/svg"/>
    <path fill="var(--secondary-color)" d="M26 19.456c.078 0 .15.024.209.065l-.001-.001a.517.517 0 00.08-.272v-.296l.16-.144a.525.525 0 00.055-.491l.001.004-1.36-3.36a.512.512 0 00-.478-.328H17.64a.528.528 0 00-.463.285l-.001.003-1.672 3.368a.511.511 0 00.002.507l-.001-.003c.095.15.26.248.448.248h2.232l-.544 2.4v.112c0 .968 1.248 1.544 3.344 1.544s3.344-.576 3.344-1.544v-.112l-.544-2.4h1.464v.208a.466.466 0 00.089.265l-.001-.001a.444.444 0 01.208-.056zm-2.712 2.088c-.112.144-.8.488-2.296.488s-2.2-.352-2.296-.488l.576-2.504h3.44zM16.8 18l1.152-2.328h6.352L25.24 18z" xmlns="http://www.w3.org/2000/svg"/>
    <path fill="var(--secondary-color)" d="M26.448 19.904v-.002a.424.424 0 00-.238-.381l-.003-.001a.366.366 0 00-.208-.064h-.456a.465.465 0 00-.448.447v.001l-.216 1.216c0 .247.201.448.448.448h.88a.449.449 0 00.448-.448z" xmlns="http://www.w3.org/2000/svg"/>
</svg>
