<svg xmlns="http://www.w3.org/2000/svg" viewBox="0 0 32 32">
    <path fill="var(--main-color)" d="M24.536 5.2H7.464c-1.336 0-2.4.8-2.4 1.808v17.984c0 1.016 1.048 1.808 2.4 1.808h17.072c1.336 0 2.4-.8 2.4-1.808V7.008c-.016-1.016-1.064-1.808-2.4-1.808zm1.336 19.792c0 .368-.568.8-1.336.8H7.464c-.8 0-1.336-.4-1.336-.8V7.008c0-.36.568-.8 1.336-.8h17.072c.8 0 1.336.408 1.336.8z" xmlns="http://www.w3.org/2000/svg"/>
    <path fill="var(--secondary-color)" d="M14.536 11.408h-2V9.4a.52.52 0 00-1.04 0v2.008H9.488a.52.52 0 000 1.04h2.008v2a.52.52 0 001.04 0v-2h2a.52.52 0 000-1.04z" xmlns="http://www.w3.org/2000/svg"/>
    <path fill="var(--main-color)" d="M22.4 11.408h-5.088a.52.52 0 000 1.04H22.4a.52.52 0 000-1.04z" xmlns="http://www.w3.org/2000/svg"/>
    <path fill="var(--secondary-color)" d="M22.4 19.2h-5.088a.52.52 0 000 1.04H22.4a.52.52 0 000-1.04z" xmlns="http://www.w3.org/2000/svg"/>
    <path fill="var(--main-color)" d="M14.624 17.144a.528.528 0 00-.736 0L12 19.016l-1.888-1.888a.528.528 0 00-.736 0 .512.512 0 000 .736l1.888 1.888L9.4 21.6a.528.528 0 000 .736.518.518 0 00.367.152h.012c.14 0 .267-.058.357-.152L12 20.488l1.856 1.864a.52.52 0 00.736 0 .528.528 0 000-.736l-1.856-1.864 1.872-1.872a.528.528 0 00.016-.736z" xmlns="http://www.w3.org/2000/svg"/>
    <path fill="var(--secondary-color)" d="M19.928 17.68l.2-.04.168-.112a.529.529 0 00.152-.368v-.2l-.152-.16-.168-.112a.526.526 0 00-.568.112l-.112.168v.2a.53.53 0 00.152.368l.168.112a.56.56 0 00.159.032h.001zM20.128 21.896a.528.528 0 00-.72.488v.192l.112.168c.09.094.217.152.357.152H20.087l.168-.12.112-.168v-.192-.007a.504.504 0 00-.152-.361z" xmlns="http://www.w3.org/2000/svg"/>
</svg>
