<svg xmlns="http://www.w3.org/2000/svg" viewBox="0 0 32 32">
    <path fill="var(--main-color)" d="M21.6 24.736a.52.52 0 00-.52.52v.96a.247.247 0 01-.24.24H6.088a.241.241 0 01-.224-.239V5.792v-.001c0-.129.098-.234.223-.247H17.224v3.312c0 .287.233.52.52.52h3.304v3.248a.52.52 0 001.04 0V8.84a1.124 1.124 0 00-.383-.839L21.704 8l-3.16-3.12a1.04 1.04 0 00-.8-.376H6.08a1.28 1.28 0 00-1.28 1.28v20.432a1.28 1.28 0 001.272 1.28H20.8a1.28 1.28 0 001.28-1.28v-.96-.002a.52.52 0 00-.478-.518H21.6zM20.552 8.32h-2.288V6.064z" xmlns="http://www.w3.org/2000/svg"/>
    <path fill="var(--main-color)" d="M14 22.16H8.68a.52.52 0 000 1.04H14a.52.52 0 000-1.04zM14 19.296H8.68a.52.52 0 000 1.04H14a.52.52 0 000-1.04zM14 16.432H8.68a.52.52 0 000 1.04H14a.52.52 0 000-1.04zM8.68 14.608h3.688a.52.52 0 000-1.04H8.68a.528.528 0 00-.528.52c.005.288.239.52.528.52z" xmlns="http://www.w3.org/2000/svg"/>
    <path fill="var(--secondary-color)" d="M26.344 18.504v-.656a1.824 1.824 0 00-2.057-1.919l.009-.001a1.84 1.84 0 00-2.047 1.925v-.004.656a1.096 1.096 0 00-.136.528v.168c.037.242.146.453.304.616.133.412.347.765.625 1.057l-.001-.001a.52.52 0 00.736 0 .528.528 0 000-.736 1.731 1.731 0 01-.413-.748l-.003-.012a.855.855 0 00-.208-.384.484.484 0 00.12-.321v-.808c0-.376.104-.88 1.008-.88s1 .472 1 .88V18.679c0 .151.042.292.114.412l-.002-.004a.563.563 0 00-.199.284l-.001.004a1.827 1.827 0 01-.409.762l.001-.002a.529.529 0 00-.152.368v.512c.112.269.304.487.546.629l.006.003a.515.515 0 00.296.096.53.53 0 00.431-.222l.001-.002a.494.494 0 00.088-.282v-.014V21.214a.52.52 0 00-.215-.421l-.002-.001-.136-.096c.2-.253.361-.548.466-.868l.006-.02c.158-.163.267-.374.303-.61l.001-.006v-.152a1.187 1.187 0 00-.083-.544l.003.008z" xmlns="http://www.w3.org/2000/svg"/>
    <path fill="var(--secondary-color)" d="M23.832 21.288a12.33 12.33 0 01-2.958-1.428l.046.028v-.144c.272-.337.485-.734.617-1.167l.007-.025a1.24 1.24 0 00.367-.721l.001-.007a1.26 1.26 0 00-.163-.806l.003.006v-.92a2.216 2.216 0 00-2.474-2.359l.01-.001a2.24 2.24 0 00-2.488 2.367v-.006.896a1.238 1.238 0 00-.159.807l-.001-.007c.044.29.176.542.368.736.143.457.356.854.63 1.2l-.006-.008v.128a4.112 4.112 0 01-.935.621l-.025.011a.52.52 0 00-.207.706l-.001-.003a.512.512 0 00.699.214l-.003.001c1.168-.624 1.408-1 1.488-1.256v-.624-.004a.511.511 0 00-.144-.356 2.454 2.454 0 01-.556-1.039l-.004-.017a.53.53 0 00-.198-.287l-.002-.001-.096-.168a.249.249 0 01.056-.192.545.545 0 00.112-.328v-1.032c0-.872.48-1.32 1.432-1.32s1.424.416 1.424 1.32v1.048a.545.545 0 00.113.329l-.001-.001a.233.233 0 01.056.202v-.001l-.096.16a.509.509 0 00-.191.284l-.001.004a2.4 2.4 0 01-.554 1.074L20 19.2a.548.548 0 00-.144.359v.593c.12.392.488.864 3.424 2.032v.336a.52.52 0 001.04 0v-.44-.029a.841.841 0 00-.483-.761l-.005-.002z" xmlns="http://www.w3.org/2000/svg"/>
</svg>
