<svg xmlns="http://www.w3.org/2000/svg" viewBox="0 0 32 32">
    <path fill="var(--main-color)" d="M14.52 11.2V9.72h.28a.52.52 0 00.52-.52V6.8a.52.52 0 00-.52-.52H9.2a.52.52 0 00-.52.52v2.4c0 .287.233.52.52.52h.28v1.48c-.904.408-3.2 1.6-3.2 3.256v8.984a2.352 2.352 0 002.351 2.28l.052-.001H8.68h6.729a2.352 2.352 0 002.351-2.276V14.399c-.04-1.56-2.344-2.792-3.24-3.2zm-4.8-3.864h4.56v1.36H9.72zM10.192 12a.521.521 0 00.328-.483V9.72h2.96v1.805a.51.51 0 00.317.473l.003.001c.936.4 2.88 1.504 2.88 2.4v.648H7.32v-.648c0-1.024 2.128-2.104 2.872-2.4zm6.488 9.472H7.32v-5.36h9.36zm-1.32 3.2H8.64a1.336 1.336 0 01-1.32-1.227v-.925h9.36v.92a1.337 1.337 0 01-1.319 1.24h-.001z" xmlns="http://www.w3.org/2000/svg"/>
    <path fill="var(--main-color)" d="M10.336 19.344h1.144v1.144a.52.52 0 001.04 0v-1.144h1.144a.52.52 0 000-1.04H12.52V17.16a.52.52 0 00-1.04 0v1.144h-1.144a.52.52 0 000 1.04zM22.776 14.28a2.897 2.897 0 00-2.896 2.896v4.048a2.92 2.92 0 105.84 0v-4.048a2.912 2.912 0 00-2.912-2.896h-.034.002zm.048 1.04c1.025 0 1.856.831 1.856 1.856v1.504h-3.76v-1.504a1.872 1.872 0 011.872-1.856h.034-.002zm-.048 7.76a1.856 1.856 0 01-1.856-1.856V19.72h3.76v1.504a1.872 1.872 0 01-1.872 1.856h-.034.002z" xmlns="http://www.w3.org/2000/svg"/>
</svg>
