<svg xmlns="http://www.w3.org/2000/svg" viewBox="0 0 512 512">
  <path d="M256 128a128 128 0 10128 128 128 128 0 00-128-128zm62.35 90.6L240.22 313a9.67 9.67 0 01-7.12 3.56 9.67 9.67 0 01-7.13-3.3l-30.53-33.09a9.67 9.67 0 0114.25-12.97l22.9 25.19 71.25-86.01a9.67 9.67 0 1114.76 12.21z" fill="#44a993"/>
  <path d="M303.84 206.38l-71.25 85.76-22.9-25.45a9.67 9.67 0 00-14 12.98L225.97 313a9.67 9.67 0 006.87 3.31h.26a9.67 9.67 0 007.12-3.56l78.13-94.67a9.67 9.67 0 10-14.76-11.96z" fill="#fff"/>
</svg>
