<svg xmlns="http://www.w3.org/2000/svg" viewBox="0 0 32 32">
    <path fill="var(--main-color)" d="M19.264 12.736a.512.512 0 00-.736 0L16 15.264l-2.528-2.528a.52.52 0 00-.736.736L15.264 16l-2.528 2.528a.52.52 0 00.367.888h.002a.518.518 0 00.367-.152L16 16.736l2.528 2.528a.518.518 0 00.367.152h.012c.14 0 .267-.058.357-.152a.512.512 0 000-.736L16.736 16l2.528-2.528a.512.512 0 000-.736z" xmlns="http://www.w3.org/2000/svg"/>
    <path fill="var(--main-color)" d="M16 6.248c-5.386 0-9.752 4.366-9.752 9.752s4.366 9.752 9.752 9.752c5.386 0 9.752-4.366 9.752-9.752-.009-5.382-4.37-9.743-9.751-9.752H16zm0 18.464A8.713 8.713 0 1124.712 16 8.72 8.72 0 0116 24.712z" xmlns="http://www.w3.org/2000/svg"/>
</svg>
