<svg xmlns="http://www.w3.org/2000/svg" viewBox="0 0 32 32">
    <path fill="var(--main-color)" d="M13.36 14.744a.52.52 0 00-.736.736l3.008 3.008.168.112.2.04.2-.04.168-.112 3.008-3.008a.52.52 0 00-.736-.736l-2.12 2.12V5.6a.52.52 0 00-1.04 0v11.264z" xmlns="http://www.w3.org/2000/svg"/>
    <path fill="var(--main-color)" d="M23.72 11.344h-4.688a.52.52 0 000 1.04H23.2v13.488H8.8V12.384h4.168a.52.52 0 000-1.04H8.28a.528.528 0 00-.52.52V26.4a.528.528 0 00.52.52h15.44a.528.528 0 00.52-.52V11.864a.528.528 0 00-.52-.52z" xmlns="http://www.w3.org/2000/svg"/>
</svg>
