<svg xmlns="http://www.w3.org/2000/svg" viewBox="0 0 32 32">
  <path fill="var(--main-color)" d="M14.696 16.264c2.92 0 5.12-4.12 5.12-6.792 0-2.828-2.292-5.12-5.12-5.12s-5.12 2.292-5.12 5.12v0c0.024 2.672 2.2 6.792 5.12 6.792zM14.696 5.392c2.251 0.005 4.075 1.829 4.080 4.080v0c0 2.216-1.864 5.752-4.080 5.752s-4.072-3.536-4.072-5.752c0 0 0 0 0 0 0-2.251 1.822-4.075 4.072-4.080h0z" />
  <path fill="var(--main-color)" d="M 11.066406 16.484375 C 11.036058 16.484375 11.004019 16.489329 10.974609 16.494141 C 8.689976 16.888265 6.6464164 17.642843 4.796875 18.697266 C 4.6455421 18.793742 4.5449219 18.958427 4.5449219 19.148438 L 4.5449219 24.75 C 4.5469219 24.989 4.7077812 25.188953 4.9257812 25.251953 L 4.9296875 25.253906 C 5.4416875 25.389906 5.9772969 25.548797 6.5292969 25.716797 C 7.6092969 26.036797 8.8410937 26.397547 10.121094 26.685547 L 10.232422 26.685547 C 10.480422 26.684547 10.689141 26.51225 10.744141 26.28125 L 10.744141 26.277344 C 10.752141 26.242344 10.757813 26.202156 10.757812 26.160156 C 10.757812 25.913156 10.585469 25.707297 10.355469 25.654297 L 10.351562 25.652344 C 9.0955625 25.372344 7.8882187 25.021172 6.8242188 24.701172 L 5.5996094 24.341797 L 5.5996094 19.445312 C 6.7534495 18.803949 8.0522433 18.28026 9.4277344 17.910156 C 9.4432043 17.911537 9.4568224 17.917969 9.4726562 17.917969 C 9.5196563 17.917969 9.5654688 17.911391 9.6054688 17.900391 C 10.038577 17.79802 10.417653 17.704238 10.826172 17.625 C 11.187403 18.279755 11.698446 18.81299 12.318359 19.1875 L 12.335938 19.197266 C 12.424316 19.997635 12.693411 20.719725 13.099609 21.345703 L 13.232422 21.476562 L 12.304688 26.742188 C 12.299687 26.770187 12.296875 26.800984 12.296875 26.833984 C 12.296875 26.976984 12.353266 27.104266 12.447266 27.197266 L 12.972656 27.736328 L 14.332031 29.189453 C 14.424031 29.288453 14.556172 29.349609 14.701172 29.349609 C 14.712942 29.349361 14.722783 29.342777 14.734375 29.341797 C 14.745967 29.342777 14.755808 29.349361 14.767578 29.349609 C 14.912578 29.349609 15.044719 29.288453 15.136719 29.189453 L 16.496094 27.736328 L 17.021484 27.197266 C 17.115484 27.104266 17.173828 26.976984 17.173828 26.833984 C 17.173828 26.800984 17.169062 26.770187 17.164062 26.742188 L 16.236328 21.476562 L 16.369141 21.345703 C 16.775339 20.719725 17.044434 19.997635 17.132812 19.197266 L 17.150391 19.1875 C 17.770304 18.81299 18.281347 18.279755 18.642578 17.625 C 19.051097 17.704238 19.430173 17.79802 19.863281 17.900391 C 19.903281 17.911391 19.949094 17.917969 19.996094 17.917969 C 20.011928 17.917969 20.025546 17.911537 20.041016 17.910156 C 21.416507 18.28026 22.715301 18.803949 23.869141 19.445312 L 23.869141 24.341797 L 22.644531 24.701172 C 21.580531 25.021172 20.373188 25.372344 19.117188 25.652344 L 19.113281 25.654297 C 18.883281 25.707297 18.710938 25.913156 18.710938 26.160156 C 18.710937 26.202156 18.716609 26.242344 18.724609 26.277344 L 18.724609 26.28125 C 18.779609 26.51225 18.988328 26.684547 19.236328 26.685547 L 19.347656 26.685547 C 20.627656 26.397547 21.859453 26.036797 22.939453 25.716797 C 23.491453 25.548797 24.027062 25.389906 24.539062 25.253906 L 24.542969 25.251953 C 24.760969 25.188953 24.921828 24.989 24.923828 24.75 L 24.923828 19.148438 C 24.923828 18.957432 24.822587 18.791556 24.669922 18.695312 C 24.669922 18.695312 24.667969 18.693359 24.667969 18.693359 C 22.819992 17.640723 20.774364 16.887841 18.492188 16.494141 C 18.462778 16.489329 18.432692 16.484375 18.402344 16.484375 C 18.386377 16.484375 18.374974 16.496609 18.359375 16.498047 C 18.351786 16.49778 18.345653 16.496094 18.337891 16.496094 C 18.124891 16.496094 17.940422 16.620734 17.857422 16.802734 L 17.855469 16.806641 C 17.59457 17.404246 17.182616 17.893178 16.667969 18.244141 C 16.110375 17.925508 15.465606 17.742188 14.777344 17.742188 C 14.762799 17.742188 14.748881 17.743978 14.734375 17.744141 C 14.719869 17.743978 14.705951 17.742188 14.691406 17.742188 C 14.003763 17.742188 13.359986 17.926042 12.802734 18.244141 C 12.287493 17.89312 11.874395 17.40474 11.613281 16.806641 L 11.611328 16.802734 C 11.528328 16.620734 11.345812 16.496094 11.132812 16.496094 C 11.124537 16.496094 11.117451 16.497743 11.109375 16.498047 C 11.093776 16.496609 11.082373 16.484375 11.066406 16.484375 z M 4.796875 18.697266 C 4.7984593 18.696256 4.7991858 18.694354 4.8007812 18.693359 L 4.7109375 18.742188 C 4.7388519 18.726083 4.7688702 18.713231 4.796875 18.697266 z M 14.734375 18.771484 C 15.121182 18.777487 15.480864 18.874589 15.814453 19.021484 C 15.81252 19.04042 15.808594 19.058461 15.808594 19.078125 C 15.808594 19.118125 15.812313 19.155453 15.820312 19.189453 L 15.822266 19.193359 C 15.855527 19.286492 15.920988 19.359541 16 19.417969 C 15.933332 19.815642 15.790826 20.183187 15.583984 20.505859 C 15.317688 20.478449 15.050345 20.458984 14.777344 20.458984 C 14.762238 20.458984 14.749458 20.46085 14.734375 20.460938 C 14.719292 20.46085 14.706512 20.458984 14.691406 20.458984 C 14.418405 20.458984 14.151062 20.478449 13.884766 20.505859 C 13.677924 20.183187 13.535418 19.815642 13.46875 19.417969 C 13.547762 19.359541 13.613223 19.286492 13.646484 19.193359 L 13.648438 19.189453 C 13.656437 19.155453 13.660156 19.118125 13.660156 19.078125 C 13.660156 19.058461 13.65623 19.04042 13.654297 19.021484 C 13.987886 18.874589 14.347568 18.777487 14.734375 18.771484 z M 14.734375 21.59375 C 14.872339 21.594486 15.008832 21.598232 15.144531 21.607422 L 16.048828 26.734375 L 15.097656 27.738281 L 14.734375 28.099609 L 14.380859 27.748047 L 13.421875 26.734375 L 14.324219 21.607422 C 14.459918 21.598232 14.596411 21.594486 14.734375 21.59375 z" />
</svg>