<svg xmlns="http://www.w3.org/2000/svg" viewBox="0 0 32 32">
    <path fill="var(--main-color)" d="M16 17.928c3.2 0 5.6-4.544 5.6-7.528a5.6 5.6 0 10-11.2 0c0 2.984 2.4 7.528 5.6 7.528zm0-12.096a4.609 4.609 0 014.592 4.566v.002c0 2.488-2.104 6.456-4.6 6.456s-4.592-4-4.592-6.456A4.6 4.6 0 0116 5.832zM27.008 20.64a20.176 20.176 0 00-6.759-2.423l-.121-.017a.495.495 0 00-.559.292l-.001.003c-.664 1.464-2 3.2-3.576 3.2s-2.904-1.72-3.568-3.2a.53.53 0 00-.563-.304h.003a20.566 20.566 0 00-6.971 2.493l.099-.053a.513.513 0 00-.256.443v3.421c0 .237.161.437.38.495l.004.001 1.8.52c2.687.948 5.791 1.556 9.018 1.686l.062.002a32.048 32.048 0 009.321-1.756l-.225.068a56.35 56.35 0 011.792-.52.521.521 0 00.384-.502V21.087a.512.512 0 00-.261-.447l-.003-.001zm-.8 3.456l-1.408.416c-2.604.93-5.611 1.527-8.74 1.654l-.06.002a30.763 30.763 0 01-9.016-1.714l.216.066-1.44-.424v-2.72a19.346 19.346 0 015.757-2.068l.123-.02c.872 1.72 2.4 3.432 4.336 3.432s3.472-1.712 4.344-3.432a19.78 19.78 0 015.989 2.148l-.101-.052z" xmlns="http://www.w3.org/2000/svg"/>
</svg>
