<svg xmlns="http://www.w3.org/2000/svg" viewBox="0 0 32 32">
    <path fill="var(--main-color)" d="M21.376 24.2a.52.52 0 00-.52.52v.88a.2.2 0 01-.192.2H6.8a.192.192 0 01-.184-.192V6.399v-.001a.2.2 0 01.183-.199H17.256v3.088c.005.288.239.52.528.52h3.072v2.992a.52.52 0 001.04 0V9.255a1.101 1.101 0 00-.367-.799l-.001-.001-2.976-2.952a1.022 1.022 0 00-.78-.36h-.021.001H6.8a1.24 1.24 0 00-1.2 1.239V6.4v-.001 19.224c0 .669.534 1.214 1.199 1.232H20.665c.68 0 1.232-.552 1.232-1.232v-.025.001-.88a.52.52 0 00-.52-.52zM20.344 8.736h-2.04V6.72z" xmlns="http://www.w3.org/2000/svg"/>
    <path fill="var(--main-color)" d="M14.248 21.768H9.24a.52.52 0 000 1.04h5.008a.52.52 0 000-1.04zM14.248 19.072H9.24a.52.52 0 000 1.04h5.008a.52.52 0 000-1.04zM14.248 16.376H9.24a.52.52 0 000 1.04h5.008a.52.52 0 000-1.04zM9.24 14.72h3.472a.52.52 0 000-1.04H9.24a.52.52 0 000 1.04z" xmlns="http://www.w3.org/2000/svg"/>
    <path fill="var(--secondary-color)" d="M25.6 14.768a3.068 3.068 0 00-2.643-.732l.019-.003a2.857 2.857 0 00-1.598.878l-.002.002a2.849 2.849 0 00-1.582-.877l-.018-.003a3.05 3.05 0 00-2.603.715l.003-.003a2.624 2.624 0 00-.936 1.932v.004a3.285 3.285 0 00.851 2.403l-.002-.003a29.197 29.197 0 003.72 3.472l.064.048a.798.798 0 001.041-.001l-.001.001a29.693 29.693 0 003.71-3.381l.018-.019a3.292 3.292 0 00.88-2.49l.001.011a2.597 2.597 0 00-.916-1.949l-.004-.003zm-.752 3.696a27.605 27.605 0 01-3.429 3.203l-.059.045a28.152 28.152 0 01-3.488-3.285l-.024-.027a2.288 2.288 0 01-.584-1.696v.007c.012-.488.235-.921.582-1.214l.002-.002a2.005 2.005 0 011.363-.488h-.002a1.823 1.823 0 01.384.001l-.008-.001c.593.093 1.08.476 1.316.997l.004.011a.545.545 0 00.943.003l.001-.003a1.724 1.724 0 011.344-.951l.008-.001a2.004 2.004 0 011.73.458l-.002-.002.048.04c.325.29.53.709.536 1.175v.001a2.272 2.272 0 01-.648 1.728z" xmlns="http://www.w3.org/2000/svg"/>
</svg>
