<svg xmlns="http://www.w3.org/2000/svg" viewBox="0 0 32 32">
    <path fill="var(--main-color)" d="M27.272 18.896a1.21 1.21 0 00-1.062-.632h-.027.001c-.68 0-2.56-1.976-3.712-3.92s-2.696-3.632-6.616-3.632h-.688a6.54 6.54 0 00-5.727 3.563l-.017.037c-1.08 1.8-2.888 3.352-3.616 3.352h-.027c-.452 0-.845.25-1.05.618l-.003.006c-.124.222-.196.486-.196.768s.073.546.201.776l-.004-.008a1.434 1.434 0 001.341.68h-.005c.968 0 4.352-.688 5.904-3.128.002.064.002.139.002.215a9.666 9.666 0 01-.827 3.927l.024-.062c-2.096-.368-3.504-.248-4.288.376a1.773 1.773 0 00-.656 1.367v.001a2.753 2.753 0 00.675 2.059l-.003-.003a3.6 3.6 0 002.625.943h-.009.304c2.535-.12 4.91-.406 7.229-.851l-.317.05c.835.242 1.809.416 2.812.486l.044.002h1.712c1.808 0 3.12-.184 3.736-.936a1.59 1.59 0 00.269-1.467l.003.011a2.524 2.524 0 00-1.18-1.658l-.012-.006a4.29 4.29 0 00-1.937-.455c-.291 0-.576.029-.851.083l.028-.005c-.8-.552-1.24-2.512-1.392-4a8.942 8.942 0 005.886 3.61l.05.006a1.423 1.423 0 001.3-.635l.003-.005c.147-.237.234-.525.234-.834 0-.256-.06-.497-.167-.712l.004.009zM9.544 25.184a2.636 2.636 0 01-1.892-.619l.004.003a1.752 1.752 0 01-.391-1.32l-.001.008v-.02c0-.225.106-.426.271-.555l.002-.001c.296-.232 1.088-.536 3.128-.224a.6.6 0 00.098.45l-.001-.002c.304.456 1.872 1.2 3.696 1.832a32.911 32.911 0 01-4.878.447l-.034.001zm14.04-2.4c.364.218.626.576.71.998l.002.01a.603.603 0 01-.065.562l.001-.002c-.536.648-2.896.568-4.616.512-2.36-.08-6.832-1.768-7.84-2.4.16-.24.464-.456 1.2-.544a4.112 4.112 0 011.926.491l-.022-.011a9.121 9.121 0 002.012.638l.06.01a11.494 11.494 0 004.129-.404l-.081.02a3.802 3.802 0 011.111-.162c.531 0 1.038.107 1.499.3l-.026-.009zm2.76-2.904a.431.431 0 01-.41.184h.002c-1.024-.04-4.8-1.456-5.648-4.304-.08-.28-.272-.88-.8-.84-.176 0-.48.096-.592.616-.2.904 0 4.512 1.24 6.232a8.983 8.983 0 01-2.19.264c-.302 0-.601-.015-.895-.043l.037.003a9.219 9.219 0 01-1.915-.607l.059.023a4.899 4.899 0 00-2.406-.551h.006c-.12 0-.216.048-.328.064.624-2.016.64-4.952.296-5.6a.576.576 0 00-.595-.327h.003c-.44.048-.568.528-.632.76-.8 2.92-4.632 3.688-5.536 3.72a.408.408 0 01-.407-.182l-.001-.002a.502.502 0 01.001-.483l-.001.003a.168.168 0 01.177-.096h-.001c1.44 0 3.544-2.248 4.504-3.864.929-1.802 2.762-3.023 4.882-3.064h.662c3.544 0 4.76 1.544 5.696 3.12.856 1.448 3.12 4.432 4.608 4.432l.018-.001c.073 0 .136.042.166.104v.001a.506.506 0 01-.001.451l.001-.003zM16 10.04h.008a2.993 2.993 0 10-2.992-2.992v.008A2.984 2.984 0 0016 10.04zm0-4.936h.008a1.952 1.952 0 11-1.952 1.952v-.008c0-1.074.87-1.944 1.944-1.944z" xmlns="http://www.w3.org/2000/svg"/>
</svg>
